<svg width="1366" preserveAspectRatio="none" height="120" viewBox="0 0 1366 120" fill="none" xmlns="http://www.w3.org/2000/svg">
<path d="M1366 104.279L1320.47 110.09C1274.93 115.685 1183.87 127.633 1092.8 112.969C1001.73 98.3048 910.667 58.1139 819.6 60.8295C728.533 63.5451 637.467 110.253 546.4 115.848C455.333 121.659 364.267 86.8993 273.2 72.3979C182.133 58.1139 91.0667 63.5451 45.5333 66.6409L0 69.5194V0L45.5333 0C91.0667 0 182.133 0 273.2 0C364.267 0 455.333 0 546.4 0C637.467 0 728.533 0 819.6 0C910.667 0 1001.73 0 1092.8 0C1183.87 0 1274.93 0 1320.47 0H1366V104.279Z" fill="#fff"/>
</svg>
