<svg width="143" height="178" viewBox="0 0 143 178" fill="none" xmlns="http://www.w3.org/2000/svg">
<path d="M130.62 0.930176H54.1122C47.3436 0.930176 41.8566 6.44907 41.8566 13.257V165.627C41.8566 172.435 47.3436 177.953 54.1122 177.953H130.62C137.389 177.953 142.876 172.435 142.876 165.627V13.257C142.876 6.44907 137.389 0.930176 130.62 0.930176Z" fill="#FC7156"/>
<path d="M130.62 0.930176H54.1122C47.3436 0.930176 41.8566 6.44907 41.8566 13.257V165.627C41.8566 172.435 47.3436 177.953 54.1122 177.953H130.62C137.389 177.953 142.876 172.435 142.876 165.627V13.257C142.876 6.44907 137.389 0.930176 130.62 0.930176Z" fill="url(#paint0_linear)"/>
<path d="M124.334 0.930176H47.8257C41.0572 0.930176 35.5702 6.44907 35.5702 13.257V165.627C35.5702 172.435 41.0572 177.953 47.8257 177.953H124.334C131.102 177.953 136.589 172.435 136.589 165.627V13.257C136.589 6.44907 131.102 0.930176 124.334 0.930176Z" fill="#FC7156"/>
<path d="M128.968 21.1957V151.452C128.968 154.048 127.943 156.538 126.118 158.374C124.293 160.211 121.818 161.243 119.237 161.245H53.3983C52.1199 161.245 50.854 160.992 49.6731 160.5C48.4921 160.007 47.4191 159.286 46.5155 158.376C45.6118 157.467 44.8952 156.387 44.4066 155.199C43.918 154.011 43.667 152.737 43.6678 151.452V21.1957C43.667 20.1366 43.8735 19.0877 44.2757 18.1089C44.6778 17.1301 45.2677 16.2405 46.0117 15.491C46.7557 14.7415 47.6391 14.1467 48.6116 13.7406C49.5841 13.3345 50.6266 13.125 51.6796 13.1241H120.943C123.07 13.1259 125.111 13.9769 126.615 15.4902C128.12 17.0035 128.966 19.0556 128.968 21.1957Z" fill="white"/>
<path d="M128.968 108.188V151.452C128.968 154.048 127.943 156.538 126.118 158.374C124.293 160.211 121.818 161.243 119.237 161.245H61.6149V108.188H128.968Z" fill="#FC7156"/>
<path d="M128.961 108.188V151.452C128.959 154.046 127.935 156.534 126.112 158.37C124.289 160.206 121.817 161.24 119.237 161.245H61.6149V108.188H128.961Z" fill="url(#paint1_linear)"/>
<path d="M128.961 133.141V151.452C128.965 153.965 128.003 156.383 126.277 158.2H63.7103V133.141H128.961Z" fill="url(#paint2_linear)"/>
<path d="M42.6697 13.2104L22.1049 35.3309H113.413L131.737 12.8979L42.6697 13.2104Z" fill="#FC7156"/>
<path d="M53.9469 13.1241L35.5239 35.198L113.579 35.2778H22.1049L22.6602 34.7526L30.0175 27.8179L43.6083 13.1174L53.9469 13.1241Z" fill="url(#paint3_linear)"/>
<path d="M80.9831 12.8049L62.6857 35.198L140.741 35.2778H49.2668L49.822 34.7526L67.2271 13.1174L80.9831 12.8049Z" fill="url(#paint4_linear)"/>
<path d="M107.173 12.8049L88.8759 35.198L75.4569 35.2778L76.0122 34.7526L93.4172 13.1174L107.173 12.8049Z" fill="url(#paint5_linear)"/>
<path d="M131.869 12.8049L113.572 35.198L100.153 35.2778L100.708 34.7526L118.113 13.1174L131.869 12.8049Z" fill="url(#paint6_linear)"/>
<path d="M62.4676 35.3242H75.5627C75.3433 36.914 74.5595 38.3702 73.3561 39.4242C72.1527 40.4782 70.6108 41.0587 69.0151 41.0587C67.4194 41.0587 65.8776 40.4782 64.6742 39.4242C63.4708 38.3702 62.687 36.914 62.4676 35.3242Z" fill="#FC7156"/>
<path d="M49.1676 35.3242H62.2627C62.0433 36.914 61.2595 38.3702 60.0561 39.4242C58.8527 40.4782 57.3108 41.0587 55.7151 41.0587C54.1194 41.0587 52.5776 40.4782 51.3742 39.4242C50.1708 38.3702 49.387 36.914 49.1676 35.3242Z" fill="#FC7156"/>
<path d="M102.13 35.2445C101.924 36.8406 101.151 38.3076 99.9518 39.3734C98.753 40.4393 97.2105 41.0316 95.6105 41.0405C94.0105 41.0495 92.4616 40.4744 91.2511 39.422C90.0406 38.3696 89.2507 36.9113 89.0279 35.3176H102.05L102.13 35.2445Z" fill="#FC7156"/>
<path d="M113.513 35.2445C113.195 38.5689 110.763 41.142 107.814 41.142C104.866 41.142 102.467 38.5955 102.123 35.3176H113.466L113.513 35.2445Z" fill="#FC7156"/>
<path d="M35.947 35.3242H49.0421C48.8226 36.914 48.0389 38.3702 46.8355 39.4242C45.632 40.4782 44.0902 41.0587 42.4945 41.0587C40.8988 41.0587 39.357 40.4782 38.1536 39.4242C36.9501 38.3702 36.1664 36.914 35.947 35.3242Z" fill="#FC7156"/>
<path d="M75.7478 35.3242H88.8296C88.6102 36.914 87.8264 38.3702 86.623 39.4242C85.4196 40.4782 83.8778 41.0587 82.2821 41.0587C80.6864 41.0587 79.1445 40.4782 77.9411 39.4242C76.7377 38.3702 75.954 36.914 75.7346 35.3242H75.7478Z" fill="#FC7156"/>
<path d="M22.6338 35.3242H35.7288C35.5094 36.914 34.7256 38.3702 33.5222 39.4242C32.3188 40.4782 30.777 41.0587 29.1813 41.0587C27.5856 41.0587 26.0438 40.4782 24.8404 39.4242C23.637 38.3702 22.8532 36.914 22.6338 35.3242Z" fill="#FC7156"/>
<path d="M62.4676 35.3242H75.5627C75.3433 36.914 74.5595 38.3702 73.3561 39.4242C72.1527 40.4782 70.6108 41.0587 69.0151 41.0587C67.4194 41.0587 65.8776 40.4782 64.6742 39.4242C63.4708 38.3702 62.687 36.914 62.4676 35.3242Z" fill="url(#paint7_linear)"/>
<path d="M49.1676 35.3242H62.2627C62.0433 36.914 61.2595 38.3702 60.0561 39.4242C58.8527 40.4782 57.3108 41.0587 55.7151 41.0587C54.1194 41.0587 52.5776 40.4782 51.3742 39.4242C50.1708 38.3702 49.387 36.914 49.1676 35.3242Z" fill="url(#paint8_linear)"/>
<path d="M102.123 35.3242C101.918 36.9203 101.144 38.3873 99.9452 39.4531C98.7464 40.519 97.2039 41.1113 95.6039 41.1203C94.0039 41.1292 92.455 40.5541 91.2445 39.5017C90.034 38.4493 89.2441 36.991 89.0213 35.3974H102.05L102.123 35.3242Z" fill="url(#paint9_linear)"/>
<path d="M113.473 35.2844C113.162 38.6088 110.736 41.1885 107.795 41.1885C104.853 41.1885 102.467 38.6354 102.123 35.3642H113.427L113.473 35.2844Z" fill="url(#paint10_linear)"/>
<path d="M35.947 35.3242H49.0421C48.8226 36.914 48.0389 38.3702 46.8355 39.4242C45.632 40.4782 44.0902 41.0587 42.4945 41.0587C40.8988 41.0587 39.357 40.4782 38.1536 39.4242C36.9501 38.3702 36.1664 36.914 35.947 35.3242Z" fill="url(#paint11_linear)"/>
<path d="M75.7478 35.3242H88.8296C88.6102 36.914 87.8264 38.3702 86.623 39.4242C85.4196 40.4782 83.8778 41.0587 82.2821 41.0587C80.6864 41.0587 79.1445 40.4782 77.9411 39.4242C76.7377 38.3702 75.954 36.914 75.7346 35.3242H75.7478Z" fill="url(#paint12_linear)"/>
<path d="M22.6338 35.3242H35.7288C35.5094 36.914 34.7256 38.3702 33.5222 39.4242C32.3188 40.4782 30.777 41.0587 29.1813 41.0587C27.5856 41.0587 26.0438 40.4782 24.8404 39.4242C23.637 38.3702 22.8532 36.914 22.6338 35.3242Z" fill="url(#paint13_linear)"/>
<path d="M35.7222 35.3243L53.8213 13.2837L67.2271 13.1174L49.0024 35.3243H35.7222Z" fill="url(#paint14_linear)"/>
<path d="M62.3486 35.3245L80.4477 13.2837L93.0338 12.9978L75.6288 35.3245H62.3486Z" fill="url(#paint15_linear)"/>
<path d="M88.975 35.3245L107.067 13.2837L119.66 12.9978L102.249 35.3245H88.975Z" fill="url(#paint16_linear)"/>
<path d="M113.427 35.3643L130.984 31.867L131.936 12.8049L113.427 35.3643Z" fill="#FC7156"/>
<path d="M113.572 35.178L131.129 31.6807L132.088 12.6188L113.572 35.178Z" fill="url(#paint17_linear)"/>
<path d="M89.299 165.387H75.2322C73.1658 165.387 71.4907 167.072 71.4907 169.151C71.4907 171.229 73.1658 172.914 75.2322 172.914H89.299C91.3653 172.914 93.0404 171.229 93.0404 169.151C93.0404 167.072 91.3653 165.387 89.299 165.387Z" fill="url(#paint18_linear)"/>
<path d="M38.0689 88.1023C47.6668 88.1023 55.4474 80.2764 55.4474 70.6227C55.4474 60.969 47.6668 53.1431 38.0689 53.1431C28.471 53.1431 20.6903 60.969 20.6903 70.6227C20.6903 80.2764 28.471 88.1023 38.0689 88.1023Z" fill="#FC7156"/>
<path d="M34.9819 88.1023C44.5798 88.1023 52.3604 80.2764 52.3604 70.6227C52.3604 60.969 44.5798 53.1431 34.9819 53.1431C25.384 53.1431 17.6033 60.969 17.6033 70.6227C17.6033 80.2764 25.384 88.1023 34.9819 88.1023Z" fill="url(#paint19_linear)"/>
<path d="M18.1255 123.208C26.6245 123.208 33.5143 116.278 33.5143 107.729C33.5143 99.1808 26.6245 92.251 18.1255 92.251C9.62651 92.251 2.73669 99.1808 2.73669 107.729C2.73669 116.278 9.62651 123.208 18.1255 123.208Z" fill="#FC7156"/>
<path d="M15.3889 123.208C23.8879 123.208 30.7777 116.278 30.7777 107.729C30.7777 99.1808 23.8879 92.251 15.3889 92.251C6.88982 92.251 0 99.1808 0 107.729C0 116.278 6.88982 123.208 15.3889 123.208Z" fill="url(#paint20_linear)"/>
<path d="M91.5332 88.9599C89.3783 91.287 88.1289 94.2789 86.906 97.231L83.462 105.622C83.3509 105.813 83.2832 106.027 83.2638 106.247C83.2443 106.468 83.2737 106.69 83.3497 106.898C83.4802 107.065 83.6456 107.201 83.834 107.296C84.0225 107.391 84.2295 107.444 84.4404 107.45C86.1931 107.717 87.9581 107.894 89.7286 107.982C98.6702 108.54 107.627 108.747 116.6 108.6C117.675 108.657 118.75 108.473 119.746 108.062C122.218 106.805 122.39 103.348 121.974 100.602C121.474 97.402 120.586 94.2758 119.33 91.2936C118.889 90.1116 118.239 89.0192 117.413 88.069C115.363 85.9081 112.124 85.5624 109.143 85.476C103.485 85.3363 95.7771 84.3656 91.5332 88.9599Z" fill="#FC7156"/>
<path d="M84.956 87.0384C84.8998 86.7339 84.7338 86.4609 84.4898 86.272C84.2458 86.083 83.941 85.9913 83.6339 86.0145C82.855 85.9801 82.0747 86.009 81.3005 86.101C80.8026 86.1147 80.3235 86.2948 79.9387 86.6129C79.6603 86.9517 79.4878 87.3658 79.443 87.8031C78.815 91.2272 79.5421 94.7378 79.8197 98.2084C80.0114 100.575 80.0313 103.089 81.3005 105.083C81.8744 105.966 82.6592 106.689 83.5831 107.188C84.507 107.686 85.5404 107.943 86.5887 107.936C87.4745 107.936 88.4793 107.61 88.8164 106.792C88.9533 106.379 88.9918 105.94 88.9288 105.509C88.4727 99.2789 87.5803 92.7697 84.956 87.0384Z" fill="#FC7156"/>
<path d="M84.5065 83.9865C84.9229 83.0823 85.4914 82.2579 85.9872 81.3935C86.1281 81.1768 86.2206 80.9318 86.2582 80.6755C86.274 80.5428 86.2496 80.4083 86.1883 80.2897C86.127 80.1711 86.0316 80.0738 85.9144 80.0106C85.4187 79.8178 85.0221 80.5093 84.5065 80.6157C83.9908 80.722 83.6207 80.3098 83.2835 79.9508C81.8133 78.4786 80.0766 77.3028 78.1671 76.4868C78.0688 76.4274 77.9596 76.3885 77.846 76.3725C77.7324 76.3565 77.6168 76.3638 77.5061 76.3938C77.3012 76.4868 77.2417 76.8525 77.4532 76.919C77.2487 76.935 77.0445 76.8837 76.8715 76.7727C76.6864 76.6929 76.4154 76.6863 76.3294 76.8725C76.2435 77.0586 76.4947 77.3312 76.4286 77.5373C76.2036 77.5427 75.9796 77.5067 75.7676 77.4309C75.5428 77.3911 75.2453 77.4309 75.2057 77.6902C75.1888 77.7758 75.1888 77.8639 75.2057 77.9495C75.2354 78.2968 75.2354 78.6461 75.2057 78.9934C75.3095 79.921 75.6949 80.7939 76.3096 81.4933C77.5353 83.0268 78.6403 84.654 79.6148 86.3601C79.8487 86.9174 80.1627 87.4371 80.5468 87.9026C81.0889 88.4876 83.0984 89.3187 83.6273 88.3015C83.8785 87.8228 83.6735 86.7723 83.7661 86.2138C83.9146 85.4419 84.1635 84.693 84.5065 83.9865Z" fill="url(#paint21_linear)"/>
<path d="M111.781 98.0287C111.91 98.4499 111.946 98.8946 111.885 99.3312C111.825 99.7678 111.669 100.186 111.43 100.555C110.855 101.26 109.85 101.4 108.945 101.446C104.536 101.679 100.034 100.914 95.7242 101.925C95.1051 102.004 94.5338 102.301 94.1113 102.763C93.7427 103.419 93.6364 104.191 93.8138 104.923L94.184 108.095L89.8873 107.31C89.7261 107.289 89.571 107.234 89.4311 107.151C89.2277 106.953 89.1071 106.684 89.094 106.4C88.7419 104.746 88.5888 103.056 88.6379 101.366C88.6954 99.6619 89.3619 98.0355 90.5152 96.7854C91.6079 95.8094 92.9259 95.1238 94.3492 94.7907C97.6544 93.8333 101.131 93.5541 104.575 93.2748C106.063 93.1551 108.542 92.8227 109.817 93.84C110.882 94.7043 111.516 96.7588 111.781 98.0287Z" fill="url(#paint22_linear)"/>
<path d="M93.589 75.1371C93.4707 76.2229 93.5086 77.3201 93.7014 78.395C93.9345 79.3382 94.3877 80.2119 95.0234 80.9438C95.6591 81.6757 96.459 82.2447 97.3569 82.6037C98.679 83.1289 100.246 83.2686 101.151 84.3523C102.057 85.436 102.011 86.8788 102.943 87.783C103.426 88.19 104.031 88.4244 104.661 88.4496C105.291 88.4749 105.912 88.2896 106.426 87.9227C107.442 87.1513 108.122 86.015 108.323 84.7512C108.512 83.4997 108.585 82.2332 108.542 80.9681C108.561 79.2804 108.7 77.5962 108.958 75.9283C109.183 74.7678 109.322 73.5922 109.375 72.4112C109.364 71.0448 109.101 69.6923 108.601 68.4219C107.484 65.4632 105.184 62.7971 102.136 62.0125C100.743 61.6663 99.2763 61.7763 97.9495 62.3263C96.6228 62.8764 95.5051 63.8379 94.7591 65.071C93.9923 66.3143 94.065 67.5775 93.9724 69.0602C93.849 71.077 93.7212 73.1026 93.589 75.1371Z" fill="url(#paint23_linear)"/>
<path d="M92.7231 58.1228C92.1744 57.8968 91.434 57.6907 91.0837 58.1694C90.9635 58.3693 90.9059 58.601 90.9184 58.8343C90.9082 59.6767 91.1885 60.4967 91.7117 61.1547C91.1641 61.1155 90.6212 61.2786 90.1847 61.6135C89.5699 62.2252 89.874 63.3023 90.4161 63.9738C90.9581 64.6453 91.7051 65.1905 92.029 65.9684C92.2008 66.3873 92.2405 66.8527 92.4058 67.2982C92.4692 67.5167 92.5929 67.7127 92.7625 67.8633C92.9322 68.0139 93.1408 68.1131 93.3643 68.1493C93.9592 68.1493 94.336 67.5509 94.6863 67.0522C95.6209 65.7734 97.0069 64.903 98.5595 64.6198C100.112 64.3367 101.714 64.6622 103.035 65.5296C105.587 67.3514 106.294 70.7888 106.803 73.8938C107.061 74.08 107.213 73.5813 107.312 73.2821C107.537 72.6173 108.568 72.6771 108.938 73.2422C109.092 73.5438 109.16 73.8823 109.134 74.2203C109.109 74.5583 108.99 74.8826 108.793 75.1571C108.436 75.7289 107.914 76.181 107.524 76.7329C107.409 76.8626 107.35 77.0319 107.358 77.2049C107.393 77.3494 107.474 77.4781 107.59 77.5706C107.906 77.8882 108.242 78.1858 108.594 78.4616C108.723 78.5917 108.879 78.6924 109.05 78.7567C109.221 78.8209 109.404 78.8473 109.586 78.8339C109.835 78.762 110.053 78.6102 110.207 78.4017C111.529 76.9124 112.045 74.8446 112.329 72.8566C112.614 70.8686 112.594 68.628 111.06 67.4312C110.756 67.1985 110.399 67.0256 110.121 66.7663C109.626 66.2728 109.219 65.6969 108.918 65.0642C107.268 62.2722 104.726 60.1253 101.706 58.9739C100.347 58.3323 98.826 58.1191 97.3437 58.3622C95.8219 58.819 94.1901 58.7345 92.7231 58.1228Z" fill="#B7A451"/>
<path d="M84.7973 106.832C84.5659 107.124 84.3544 107.57 84.6122 107.836C84.7023 107.9 84.8043 107.946 84.9121 107.97C85.02 107.994 85.1316 107.996 85.2402 107.975L93.1329 107.503C93.2615 107.505 93.3892 107.482 93.5097 107.437C93.9064 107.257 93.9328 106.719 93.9064 106.28L93.7675 104.232C93.7213 103.494 93.8733 103.268 93.1594 103.168C92.0857 103.12 91.0124 103.271 89.993 103.614C87.9749 104.127 86.1616 105.25 84.7973 106.832Z" fill="url(#paint24_linear)"/>
<path d="M128.961 110.568H63.6839V130.036H128.961V110.568Z" fill="url(#paint25_linear)"/>
<path d="M44.785 80.6954H28.1071L30.9363 65.5229H42.3656L44.785 80.6954Z" fill="white"/>
<path d="M40.4155 66.866H33.2632V66.2011C33.2632 65.2471 33.64 64.3322 34.3106 63.6577C34.9813 62.9831 35.8909 62.6041 36.8394 62.6041C37.7878 62.6041 38.6974 62.9831 39.3681 63.6577C40.0388 64.3322 40.4155 65.2471 40.4155 66.2011V66.866ZM34.6249 65.5695H39.0274C38.888 65.0909 38.5981 64.6706 38.2013 64.3716C37.8044 64.0727 37.322 63.9111 36.8261 63.9111C36.3303 63.9111 35.8478 64.0727 35.451 64.3716C35.0542 64.6706 34.7643 65.0909 34.6249 65.5695Z" fill="white"/>
<path d="M80.7782 116.113H68.2649V129.783H80.7782V116.113Z" fill="#FC7156"/>
<path d="M80.7782 116.113H68.2649V129.783H80.7782V116.113Z" fill="url(#paint26_linear)"/>
<path d="M96.9405 122.037H84.4271V129.783H96.9405V122.037Z" fill="url(#paint27_linear)"/>
<path d="M79.0001 116.113H66.4867V129.783H79.0001V116.113Z" fill="#FC7156"/>
<path d="M94.4087 122.815H84.6849V129.936H94.4087V122.815Z" fill="#FC7156"/>
<path d="M80.5006 143.752H67.9872V157.422H80.5006V143.752Z" fill="#FC7156"/>
<path d="M94.1311 150.454H84.4073V157.575H94.1311V150.454Z" fill="#FC7156"/>
<path d="M106.076 129.936C108.507 129.936 110.478 127.954 110.478 125.508C110.478 123.062 108.507 121.08 106.076 121.08C103.645 121.08 101.673 123.062 101.673 125.508C101.673 127.954 103.645 129.936 106.076 129.936Z" fill="url(#paint28_linear)"/>
<path d="M104.456 129.936C106.888 129.936 108.859 127.954 108.859 125.508C108.859 123.062 106.888 121.08 104.456 121.08C102.025 121.08 100.054 123.062 100.054 125.508C100.054 127.954 102.025 129.936 104.456 129.936Z" fill="#FC7156"/>
<path d="M102.063 157.695C104.495 157.695 106.466 155.712 106.466 153.267C106.466 150.821 104.495 148.839 102.063 148.839C99.6321 148.839 97.661 150.821 97.661 153.267C97.661 155.712 99.6321 157.695 102.063 157.695Z" fill="url(#paint29_linear)"/>
<path d="M100.437 157.695C102.869 157.695 104.84 155.712 104.84 153.267C104.84 150.821 102.869 148.839 100.437 148.839C98.0059 148.839 96.0349 150.821 96.0349 153.267C96.0349 155.712 98.0059 157.695 100.437 157.695Z" fill="#FC7156"/>
<path d="M120.004 129.936C123.246 129.936 125.874 127.293 125.874 124.032C125.874 120.771 123.246 118.128 120.004 118.128C116.762 118.128 114.134 120.771 114.134 124.032C114.134 127.293 116.762 129.936 120.004 129.936Z" fill="url(#paint30_linear)"/>
<path d="M117.842 129.936C121.084 129.936 123.712 127.293 123.712 124.032C123.712 120.771 121.084 118.128 117.842 118.128C114.6 118.128 111.972 120.771 111.972 124.032C111.972 127.293 114.6 129.936 117.842 129.936Z" fill="#FC7156"/>
<path d="M114.445 157.489C117.687 157.489 120.315 154.845 120.315 151.584C120.315 148.324 117.687 145.68 114.445 145.68C111.203 145.68 108.575 148.324 108.575 151.584C108.575 154.845 111.203 157.489 114.445 157.489Z" fill="url(#paint31_linear)"/>
<path d="M112.283 157.489C115.525 157.489 118.153 154.845 118.153 151.584C118.153 148.324 115.525 145.68 112.283 145.68C109.041 145.68 106.413 148.324 106.413 151.584C106.413 154.845 109.041 157.489 112.283 157.489Z" fill="#FC7156"/>
<path d="M16.2284 104.85C16.2284 108.135 14.5163 109.757 12.5134 109.757C10.5104 109.757 8.92396 108.201 8.89752 105.103C8.87108 102.005 10.5898 100.243 12.6324 100.243C14.7939 100.21 16.2284 101.885 16.2284 104.85ZM10.5633 104.997C10.517 106.991 11.2574 108.494 12.5464 108.494C13.8354 108.494 14.5295 107.005 14.5295 104.95C14.5295 103.055 13.9809 101.479 12.5464 101.479C11.2574 101.479 10.5633 103.062 10.5633 104.997ZM12.3745 116.3L21.4637 100.216H22.7858L13.7032 116.293L12.3745 116.3ZM26.2959 111.3C26.2959 114.578 24.5772 116.206 22.6073 116.206C20.6375 116.206 19.0113 114.651 18.9915 111.552C18.9717 108.454 20.6771 106.672 22.7263 106.672C24.8879 106.652 26.2959 108.321 26.2959 111.293V111.3ZM20.6309 111.439C20.6309 113.434 21.3712 114.937 22.6536 114.937C24.0352 114.937 24.6367 113.454 24.6367 111.393C24.6367 109.505 24.0881 107.922 22.6536 107.922C21.3448 107.915 20.6309 109.471 20.6309 111.433V111.439Z" fill="white"/>
<defs>
<linearGradient id="paint0_linear" x1="16592.8" y1="34035.4" x2="39466.6" y2="33506.2" gradientUnits="userSpaceOnUse">
<stop offset="0.01"/>
<stop offset="0.13" stop-opacity="0.69"/>
<stop offset="1" stop-opacity="0"/>
</linearGradient>
<linearGradient id="paint1_linear" x1="16468.4" y1="18336" x2="16212.9" y2="9466.69" gradientUnits="userSpaceOnUse">
<stop offset="0.01"/>
<stop offset="0.13" stop-opacity="0.69"/>
<stop offset="1" stop-opacity="0"/>
</linearGradient>
<linearGradient id="paint2_linear" x1="15593.4" y1="6326.77" x2="15731.9" y2="9231.17" gradientUnits="userSpaceOnUse">
<stop offset="0.01"/>
<stop offset="0.13" stop-opacity="0.69"/>
<stop offset="1" stop-opacity="0"/>
</linearGradient>
<linearGradient id="paint3_linear" x1="15224.1" y1="1510.05" x2="15193.2" y2="3140.45" gradientUnits="userSpaceOnUse">
<stop offset="0.01"/>
<stop offset="0.13" stop-opacity="0.69"/>
<stop offset="1" stop-opacity="0"/>
</linearGradient>
<linearGradient id="paint4_linear" x1="19014.5" y1="1517.59" x2="18982.3" y2="3191.55" gradientUnits="userSpaceOnUse">
<stop offset="0.01"/>
<stop offset="0.13" stop-opacity="0.69"/>
<stop offset="1" stop-opacity="0"/>
</linearGradient>
<linearGradient id="paint5_linear" x1="6441.25" y1="1436.24" x2="6348.61" y2="3105.65" gradientUnits="userSpaceOnUse">
<stop offset="0.01"/>
<stop offset="0.13" stop-opacity="0.69"/>
<stop offset="1" stop-opacity="0"/>
</linearGradient>
<linearGradient id="paint6_linear" x1="7650.87" y1="1436.24" x2="7558.07" y2="3105.67" gradientUnits="userSpaceOnUse">
<stop offset="0.01"/>
<stop offset="0.13" stop-opacity="0.69"/>
<stop offset="1" stop-opacity="0"/>
</linearGradient>
<linearGradient id="paint7_linear" x1="66.9825" y1="16.5081" x2="71.8436" y2="60.9692" gradientUnits="userSpaceOnUse">
<stop offset="0.02" stop-color="white" stop-opacity="0"/>
<stop offset="0.32" stop-color="white" stop-opacity="0.39"/>
<stop offset="0.68" stop-color="white" stop-opacity="0.68"/>
<stop offset="1" stop-color="white"/>
</linearGradient>
<linearGradient id="paint8_linear" x1="2381.4" y1="551.314" x2="2399.83" y2="938.492" gradientUnits="userSpaceOnUse">
<stop offset="0.01"/>
<stop offset="0.13" stop-opacity="0.69"/>
<stop offset="1" stop-opacity="0"/>
</linearGradient>
<linearGradient id="paint9_linear" x1="3202.77" y1="519.94" x2="3221.59" y2="911.319" gradientUnits="userSpaceOnUse">
<stop offset="0.02" stop-color="white" stop-opacity="0"/>
<stop offset="0.32" stop-color="white" stop-opacity="0.39"/>
<stop offset="0.68" stop-color="white" stop-opacity="0.68"/>
<stop offset="1" stop-color="white"/>
</linearGradient>
<linearGradient id="paint10_linear" x1="3010.31" y1="532.406" x2="3032.46" y2="924.345" gradientUnits="userSpaceOnUse">
<stop offset="0.01"/>
<stop offset="0.13" stop-opacity="0.69"/>
<stop offset="1" stop-opacity="0"/>
</linearGradient>
<linearGradient id="paint11_linear" x1="2108.11" y1="563.643" x2="2126.54" y2="950.878" gradientUnits="userSpaceOnUse">
<stop offset="0.02" stop-color="white" stop-opacity="0"/>
<stop offset="0.32" stop-color="white" stop-opacity="0.39"/>
<stop offset="0.68" stop-color="white" stop-opacity="0.68"/>
<stop offset="1" stop-color="white"/>
</linearGradient>
<linearGradient id="paint12_linear" x1="2927.96" y1="526.541" x2="2946.39" y2="913.719" gradientUnits="userSpaceOnUse">
<stop offset="0.01"/>
<stop offset="0.13" stop-opacity="0.69"/>
<stop offset="1" stop-opacity="0"/>
</linearGradient>
<linearGradient id="paint13_linear" x1="1834.86" y1="576.03" x2="1853.29" y2="963.264" gradientUnits="userSpaceOnUse">
<stop offset="0.01"/>
<stop offset="0.13" stop-opacity="0.69"/>
<stop offset="1" stop-opacity="0"/>
</linearGradient>
<linearGradient id="paint14_linear" x1="3637.67" y1="2071.48" x2="5139.19" y2="2071.48" gradientUnits="userSpaceOnUse">
<stop offset="0.02" stop-color="white" stop-opacity="0"/>
<stop offset="0.32" stop-color="white" stop-opacity="0.39"/>
<stop offset="0.68" stop-color="white" stop-opacity="0.68"/>
<stop offset="1" stop-color="white"/>
</linearGradient>
<linearGradient id="paint15_linear" x1="4806.57" y1="2080.45" x2="6230.98" y2="2080.45" gradientUnits="userSpaceOnUse">
<stop offset="0.02" stop-color="white" stop-opacity="0"/>
<stop offset="0.32" stop-color="white" stop-opacity="0.39"/>
<stop offset="0.68" stop-color="white" stop-opacity="0.68"/>
<stop offset="1" stop-color="white"/>
</linearGradient>
<linearGradient id="paint16_linear" x1="6069.2" y1="2080.45" x2="7493.6" y2="2080.45" gradientUnits="userSpaceOnUse">
<stop offset="0.02" stop-color="white" stop-opacity="0"/>
<stop offset="0.32" stop-color="white" stop-opacity="0.39"/>
<stop offset="0.68" stop-color="white" stop-opacity="0.68"/>
<stop offset="1" stop-color="white"/>
</linearGradient>
<linearGradient id="paint17_linear" x1="5219.96" y1="2420.36" x2="4177.56" y2="2001.75" gradientUnits="userSpaceOnUse">
<stop offset="0.01"/>
<stop offset="0.13" stop-opacity="0.69"/>
<stop offset="1" stop-opacity="0"/>
</linearGradient>
<linearGradient id="paint18_linear" x1="4021.12" y1="2320.22" x2="4029.48" y2="2720.23" gradientUnits="userSpaceOnUse">
<stop offset="0.01"/>
<stop offset="0.13" stop-opacity="0.69"/>
<stop offset="1" stop-opacity="0"/>
</linearGradient>
<linearGradient id="paint19_linear" x1="3038.69" y1="5733.32" x2="4865.87" y2="5733.32" gradientUnits="userSpaceOnUse">
<stop offset="0.02" stop-color="white" stop-opacity="0"/>
<stop offset="0.32" stop-color="white" stop-opacity="0.39"/>
<stop offset="0.68" stop-color="white" stop-opacity="0.68"/>
<stop offset="1" stop-color="white"/>
</linearGradient>
<linearGradient id="paint20_linear" x1="1855.59" y1="6849.75" x2="3288.6" y2="6849.75" gradientUnits="userSpaceOnUse">
<stop offset="0.02" stop-color="white" stop-opacity="0"/>
<stop offset="0.32" stop-color="white" stop-opacity="0.39"/>
<stop offset="0.68" stop-color="white" stop-opacity="0.68"/>
<stop offset="1" stop-color="white"/>
</linearGradient>
<linearGradient id="paint21_linear" x1="75.1925" y1="82.6235" x2="86.2582" y2="82.6235" gradientUnits="userSpaceOnUse">
<stop stop-color="#E5C5D5"/>
<stop offset="0.42" stop-color="#EAD4D1"/>
<stop offset="1" stop-color="#F0E9CB"/>
</linearGradient>
<linearGradient id="paint22_linear" x1="97.661" y1="91.5594" x2="107.631" y2="129.276" gradientUnits="userSpaceOnUse">
<stop stop-opacity="0"/>
<stop offset="0.99"/>
</linearGradient>
<linearGradient id="paint23_linear" x1="9251.4" y1="-18063.4" x2="9643.6" y2="-18220" gradientUnits="userSpaceOnUse">
<stop stop-color="#E5C5D5"/>
<stop offset="0.42" stop-color="#EAD4D1"/>
<stop offset="1" stop-color="#F0E9CB"/>
</linearGradient>
<linearGradient id="paint24_linear" x1="2198.62" y1="1174.14" x2="2332.85" y2="1174.14" gradientUnits="userSpaceOnUse">
<stop stop-color="#E5C5D5"/>
<stop offset="0.42" stop-color="#EAD4D1"/>
<stop offset="1" stop-color="#F0E9CB"/>
</linearGradient>
<linearGradient id="paint25_linear" x1="13275.1" y1="4161.2" x2="13345.3" y2="6058.85" gradientUnits="userSpaceOnUse">
<stop offset="0.01"/>
<stop offset="0.13" stop-opacity="0.69"/>
<stop offset="1" stop-opacity="0"/>
</linearGradient>
<linearGradient id="paint26_linear" x1="2363.08" y1="3375.54" x2="1943.46" y2="3476.95" gradientUnits="userSpaceOnUse">
<stop offset="0.01"/>
<stop offset="0.13" stop-opacity="0.69"/>
<stop offset="1" stop-opacity="0"/>
</linearGradient>
<linearGradient id="paint27_linear" x1="2672.69" y1="2005.52" x2="2333.25" y2="2150.25" gradientUnits="userSpaceOnUse">
<stop offset="0.01"/>
<stop offset="0.13" stop-opacity="0.69"/>
<stop offset="1" stop-opacity="0"/>
</linearGradient>
<linearGradient id="paint28_linear" x1="2074.07" y1="2217.4" x2="1982.19" y2="2451.37" gradientUnits="userSpaceOnUse">
<stop offset="0.01"/>
<stop offset="0.13" stop-opacity="0.69"/>
<stop offset="1" stop-opacity="0"/>
</linearGradient>
<linearGradient id="paint29_linear" x1="2016.61" y1="2614.94" x2="1924.64" y2="2848.91" gradientUnits="userSpaceOnUse">
<stop offset="0.01"/>
<stop offset="0.13" stop-opacity="0.69"/>
<stop offset="1" stop-opacity="0"/>
</linearGradient>
<linearGradient id="paint30_linear" x1="3004.05" y1="2854.33" x2="2840.64" y2="3270.28" gradientUnits="userSpaceOnUse">
<stop offset="0.01"/>
<stop offset="0.13" stop-opacity="0.69"/>
<stop offset="1" stop-opacity="0"/>
</linearGradient>
<linearGradient id="paint31_linear" x1="2899.74" y1="3371.13" x2="2736.33" y2="3787.09" gradientUnits="userSpaceOnUse">
<stop offset="0.01"/>
<stop offset="0.13" stop-opacity="0.69"/>
<stop offset="1" stop-opacity="0"/>
</linearGradient>
</defs>
</svg>
