<svg width="229" height="178" viewBox="0 0 229 178" fill="none" xmlns="http://www.w3.org/2000/svg">
<path d="M174.398 157.113C174.398 157.113 162.107 150.677 155.261 149.004C152.093 148.219 147.922 143.824 143.955 138.656C142.675 136.957 141.395 135.168 140.116 133.398C140.116 133.398 118.918 98.8459 130.448 91.2971C130.448 91.2971 135.394 91.1877 138.126 92.6679C140.858 94.148 146.86 106.672 147.864 108.885C148.869 111.099 159.797 131.622 160.526 132.085C161.256 132.549 162.478 134.235 166.848 136.59C172.197 139.486 180.604 147.968 180.604 147.968L174.398 157.113Z" fill="#FC7156"/>
<path d="M174.398 157.113C174.398 157.113 162.107 150.677 155.261 149.004C152.093 148.219 147.922 143.824 143.955 138.656C142.675 136.957 141.395 135.168 140.116 133.398C140.116 133.398 118.918 98.8459 130.448 91.2971C130.448 91.2971 135.394 91.1877 138.126 92.6679C140.858 94.148 146.86 106.672 147.864 108.885C148.869 111.099 159.797 131.622 160.526 132.085C161.256 132.549 162.478 134.235 166.848 136.59C172.197 139.486 180.604 147.968 180.604 147.968L174.398 157.113Z" fill="url(#paint0_linear)"/>
<path d="M136.699 111.633C137.203 104.915 137.548 98.6378 137.736 92.803C136.123 91.9471 134.191 90.9431 132.617 90.2288C127.825 87.9313 121.139 84.8359 116.852 82.8602C114.344 81.7018 111.887 80.8523 111.887 80.8523C111.887 80.8523 94.7457 79.1984 93.3317 79.2885C91.4956 79.7875 89.6938 80.4066 87.9379 81.1419C81.866 83.4651 70.1443 88.1823 68.2824 89.508C65.544 91.4773 55.7546 139.705 55.4859 143.019C55.2299 146.198 68.8007 150.555 81.3605 153.895C81.3605 158.786 81.2517 165.64 81.143 171.914C81.143 172.983 81.1046 174.032 81.0854 175.048H136.066C135.989 173.974 135.925 172.912 135.874 171.914V171.515C135.663 167.281 134.844 159.687 135.055 152.293C135.055 152.293 134.92 144.506 135.695 141.146C135.81 126.3 136.699 111.633 136.699 111.633ZM66.99 140.007C67.0731 133.726 75.3909 122.033 75.3909 122.033C75.5184 121.977 75.6487 121.928 75.7812 121.885C75.7812 121.885 76.2099 121.827 76.2099 121.833C76.2099 121.84 77.4895 120.604 77.4895 120.604C77.7903 121.718 80.5479 137.504 81.2261 146.694C73.4714 145.149 66.9452 143 66.99 140.007Z" fill="white"/>
<path d="M136.699 111.633C137.203 104.915 137.548 98.6378 137.736 92.803C136.123 91.9471 134.191 90.9431 132.617 90.2288C127.825 87.9313 121.139 84.8359 116.852 82.8602C114.344 81.7018 111.887 80.8523 111.887 80.8523C111.887 80.8523 94.7457 79.1984 93.3317 79.2885C91.4956 79.7875 89.6938 80.4066 87.9379 81.1419C81.866 83.4651 70.1443 88.1823 68.2824 89.508C65.544 91.4773 55.7546 139.705 55.4859 143.019C55.2299 146.198 68.8007 150.555 81.3605 153.895C81.3605 158.786 81.2517 165.64 81.143 171.914C81.143 172.983 81.1046 174.032 81.0854 175.048H136.066C135.989 173.974 135.925 172.912 135.874 171.914V171.515C135.663 167.281 134.844 159.687 135.055 152.293C135.055 152.293 134.92 144.506 135.695 141.146C135.81 126.3 136.699 111.633 136.699 111.633ZM66.99 140.007C67.0731 133.726 75.3909 122.033 75.3909 122.033C75.5184 121.977 75.6487 121.928 75.7812 121.885C75.7812 121.885 76.2099 121.827 76.2099 121.833C76.2099 121.84 77.4895 120.604 77.4895 120.604C77.7903 121.718 80.5479 137.504 81.2261 146.694C73.4714 145.149 66.9452 143 66.99 140.007Z" fill="url(#paint1_linear)"/>
<path d="M137.717 171.876C137.358 169.256 137.013 166.637 136.706 164.076C136.706 164.076 136.706 164.076 136.706 164.044C136.61 163.188 136.507 162.345 136.411 161.508C136.411 161.47 136.411 161.424 136.411 161.373C136.008 157.846 135.675 154.461 135.432 151.366C135.283 149.04 135.386 146.706 135.739 144.403C136.699 128.559 137.173 111.852 137.173 111.852C137.678 105.018 137.966 98.6208 138.158 92.668C138.158 92.668 116.641 82.4356 114.689 81.85C114.689 81.85 118.771 91.5032 121.83 113.043C123.007 121.319 125.182 135.245 126.769 149.467C127.626 157.138 129.232 164.958 130.448 171.876C130.64 172.944 130.813 173.987 130.979 175.01H138.184C138.011 173.967 137.864 172.918 137.717 171.876Z" fill="#FC7156"/>
<path d="M101.893 146.424C102.737 138.411 103.505 130.418 103.134 126.036C100.165 90.8145 91.7704 81.4959 90.5548 80.1316C89.6078 80.492 86.0248 81.8434 84.9755 82.2617C79.217 84.5399 67.5274 88.6972 65.947 89.8556C63.2149 91.8249 52.4274 142.421 52.1011 145.69C51.8836 147.904 65.9598 152.524 80.3239 156.63C80.1896 160.594 80.5607 166.18 79.2554 172.011C78.9242 173.001 78.7094 174.027 78.6156 175.068L98.6358 174.991C98.7574 173.948 98.8853 172.906 99.0069 171.857C99.3908 168.71 99.7875 165.485 100.184 162.055C106.186 163.619 110.268 164.63 110.268 164.63C110.268 164.63 115.911 155.041 117.549 151.154C117.843 150.51 110.581 148.792 101.893 146.424ZM73.7017 134.711C73.5863 130.393 74.3145 126.094 75.8451 122.059C76.5553 124.53 77.5407 131.59 78.4044 138.604C75.4932 137.131 73.7401 136.165 73.7017 134.711Z" fill="#FC7156"/>
<path d="M92.4744 79.7905C92.4744 79.7905 94.6562 75.6461 94.0547 63.8821C93.8884 60.6258 111.068 71.6046 111.068 71.6046C111.068 71.6046 111.01 72.7308 110.972 74.2432C110.972 74.8867 110.94 75.5689 110.94 76.2768C110.94 76.4763 110.94 76.6693 110.94 76.8624C110.94 77.1842 110.94 77.5059 110.94 77.8213C110.94 78.1366 110.94 78.6064 110.978 78.9797C111.017 79.3529 111.029 79.8034 111.068 80.1702C111.198 80.9612 111.412 81.7358 111.708 82.4805C112.501 84.3147 98.911 84.4369 92.4744 79.7905Z" fill="#E4AA8B"/>
<path d="M106.883 87.2686L109.257 90.4863C109.82 91.2457 110.21 91.7219 110.153 92.7387C110.081 93.8811 109.58 94.9533 108.751 95.7376C108.65 95.8554 108.523 95.9473 108.379 96.0055C108.236 96.0637 108.08 96.0866 107.926 96.0723C107.741 96.0067 107.577 95.8909 107.453 95.7376C106.513 94.9014 105.723 93.9087 105.117 92.8031C104.778 92.0565 105.2 91.4516 105.495 90.718L106.883 87.2686Z" fill="#18202D"/>
<path d="M108.931 92.0951C109.967 92.7837 110.434 95.6347 110.985 96.793C112.264 99.5088 113.851 102.077 114.945 104.889C116.333 108.461 116.865 112.296 117.338 116.099C118.08 122.363 118.562 128.649 118.784 134.955C118.95 139.634 118.97 144.332 119.673 148.959C120.115 151.868 120.812 154.918 119.763 157.66C118.963 159.751 117.255 161.335 115.559 162.808C114.228 161.631 112.853 160.382 112.194 158.728C111.846 157.765 111.631 156.758 111.554 155.736L110.172 143.45C109.666 138.907 109.155 134.37 108.764 129.814C108.483 126.596 108.265 123.378 108.272 120.16C108.272 117.354 108.457 114.549 108.188 111.756C107.907 108.802 107.12 105.912 106.749 102.965C106.41 100.288 105.239 94.6307 107.421 92.462C108.054 91.8828 108.534 91.8249 108.931 92.0951Z" fill="#18202D"/>
<path d="M110.274 83.2786L106.883 87.2686C106.883 87.2686 101.438 86.2067 99.8451 83.3493C98.252 80.492 110.274 83.2786 110.274 83.2786Z" fill="#E4AA8B"/>
<path d="M111.048 79.7905C111.048 79.7905 110.658 82.8281 106.883 87.2685L113.64 94.9911L113.23 81.3157L111.048 79.7905Z" fill="white"/>
<path d="M93.5108 76.1287C93.5108 76.1287 101.381 85.0805 106.883 87.2686L102.967 96.4135L91.764 79.6811L93.5108 76.1287Z" fill="white"/>
<path d="M111.048 79.7905C111.048 79.7905 110.658 82.8281 106.883 87.2685L113.64 94.9911L113.23 81.3157L111.048 79.7905Z" fill="url(#paint2_linear)"/>
<path d="M93.5108 76.1287C93.5108 76.1287 101.381 85.0805 106.883 87.2686L102.967 96.4135L91.764 79.6811L93.5108 76.1287Z" fill="url(#paint3_linear)"/>
<path d="M124.267 168.902C123.556 168.883 122.852 168.751 122.182 168.51C122.182 168.51 121.094 167.802 120.262 167.352C120.055 167.23 119.842 167.12 119.622 167.023C118.37 166.66 117.186 166.092 116.116 165.344C114.74 164.295 110.261 160.079 110.261 160.079L113.16 155.575L114.491 151.141C114.491 151.141 124.933 152.19 126.328 153.02C126.458 153.099 126.584 153.185 126.705 153.277C127.818 154.095 128.305 155.208 128.836 155.671C129.034 155.858 130.851 157.814 130.755 158.606C130.729 159.051 130.591 159.483 130.352 159.859C130.114 160.235 129.783 160.544 129.392 160.755C129.392 160.755 129.028 162.898 127.921 163.857C127.827 164.445 127.599 165.003 127.255 165.487C126.91 165.972 126.46 166.37 125.937 166.65C125.937 166.65 125.451 168.664 124.267 168.902Z" fill="#E5AB8C"/>
<path d="M107.645 33.5387C107.645 33.5387 126.513 28.9696 122.54 52.9932C118.566 77.0168 114.036 78.9667 102.545 74.1787C91.0539 69.3907 91.8537 54.0228 91.1691 46.5062C90.4845 38.9896 101.624 33.8927 107.645 33.5387Z" fill="#E4A98A"/>
<path d="M97.7337 50.1809C97.4522 48.0701 93.2869 47.3557 92.999 50.5284C92.711 53.7011 95.0144 59.2357 96.582 58.6629C98.1496 58.0901 98.1176 53.0898 97.7337 50.1809Z" fill="#E4A98A"/>
<path d="M118.08 151.173L110.287 164.649C110.287 164.649 89.6526 159.294 84.8347 157.93L95.8654 144.757C95.8654 144.757 112.072 148.483 118.08 151.173Z" fill="#FC7156"/>
<path d="M110.997 78.9862C108.116 78.7484 105.334 77.8183 102.884 76.2739C100.435 74.7296 98.3897 72.6162 96.9211 70.1116C100.643 73.8686 105.639 76.073 110.908 76.2833C110.908 76.4828 110.908 76.6758 110.908 76.8689C110.908 77.1907 110.908 77.5125 110.908 77.8278C110.908 78.1431 110.978 78.6451 110.997 78.9862Z" fill="#A07A64"/>
<path d="M100.402 177.61H197.847C200.579 177.61 202.793 175.383 202.793 172.635V172.629C202.793 169.881 200.579 167.654 197.847 167.654H100.402C97.6703 167.654 95.4559 169.881 95.4559 172.629V172.635C95.4559 175.383 97.6703 177.61 100.402 177.61Z" fill="#FC7156"/>
<path d="M100.402 177.61H197.847C200.579 177.61 202.793 175.383 202.793 172.635V172.629C202.793 169.881 200.579 167.654 197.847 167.654H100.402C97.6703 167.654 95.4559 169.881 95.4559 172.629V172.635C95.4559 175.383 97.6703 177.61 100.402 177.61Z" fill="url(#paint4_linear)"/>
<path d="M138.094 168.098L139.726 173.382L208.968 177.616L228.694 127.304C228.956 126.633 229.052 125.908 228.973 125.192C228.894 124.476 228.641 123.79 228.238 123.195C227.835 122.599 227.294 122.111 226.66 121.774C226.027 121.437 225.322 121.261 224.605 121.261H165.92C163.079 121.262 160.304 122.121 157.955 123.728C155.606 125.334 153.791 127.614 152.746 130.27L138.094 168.098Z" fill="#FC7156"/>
<path d="M138.094 168.098L139.726 173.382L208.968 177.616L228.694 127.304C228.956 126.633 229.052 125.908 228.973 125.192C228.894 124.476 228.641 123.79 228.238 123.195C227.835 122.599 227.294 122.111 226.66 121.774C226.027 121.437 225.322 121.261 224.605 121.261H165.92C163.079 121.262 160.304 122.121 157.955 123.728C155.606 125.334 153.791 127.614 152.746 130.27L138.094 168.098Z" fill="url(#paint5_linear)"/>
<path d="M137.992 177.674H209.013L227.747 129.884C227.996 129.247 228.086 128.559 228.011 127.879C227.935 127.199 227.695 126.548 227.313 125.982C226.93 125.416 226.416 124.953 225.814 124.633C225.213 124.312 224.543 124.145 223.863 124.144H168.128C165.429 124.142 162.793 124.958 160.562 126.484C158.331 128.011 156.608 130.178 155.619 132.703L137.992 177.674Z" fill="#FC7156"/>
<path d="M137.992 177.674H209.013L227.747 129.884C227.996 129.247 228.086 128.559 228.011 127.879C227.935 127.199 227.695 126.548 227.313 125.982C226.93 125.416 226.416 124.953 225.814 124.633C225.213 124.312 224.543 124.145 223.863 124.144H168.128C165.429 124.142 162.793 124.958 160.562 126.484C158.331 128.011 156.608 130.178 155.619 132.703L137.992 177.674Z" fill="url(#paint6_linear)"/>
<path d="M43.9562 86.2388V108.036C43.9562 108.588 43.8479 109.136 43.6376 109.646C43.4274 110.157 43.1191 110.621 42.7306 111.012C42.342 111.403 41.8807 111.713 41.373 111.924C40.8653 112.136 40.3212 112.245 39.7717 112.245H4.58114C3.47187 112.243 2.40852 111.799 1.62414 111.01C0.839766 110.221 0.39836 109.151 0.396667 108.036V86.2388C0.399414 86.0039 0.418657 85.7695 0.454252 85.5374L25.3564 102.385L43.8346 85.3314C43.9078 85.6286 43.9485 85.9328 43.9562 86.2388Z" fill="white"/>
<path d="M99.7044 52.9738C99.2053 51.6867 98.5655 50.2966 97.2794 49.859C95.5967 49.2927 93.7732 50.9788 93.69 52.7678C93.6068 54.5569 94.7905 56.1851 96.2109 57.2727C95.3757 60.1453 94.3057 62.9436 93.0118 65.6388C91.4221 60.6449 90.5958 55.4371 90.5612 50.1937C89.9214 50.007 89.5823 49.2477 89.4415 48.5719C88.5458 44.2923 90.7596 40.0127 93.1717 36.3445C94.1446 34.7063 95.4065 33.2603 96.8955 32.0778C100.229 29.6967 104.663 29.9927 108.732 29.6259C112.085 29.3234 115.585 28.5254 118.707 29.7803C120.933 30.7846 122.743 32.5365 123.826 34.7357C124.9 36.9239 125.64 39.2628 126.02 41.6731C126.566 44.0906 126.766 46.5738 126.615 49.0481C126.452 51.5391 125.499 53.9118 123.896 55.8183C123.448 56.3138 122.284 56.8994 121.746 56.5069C122.265 54.4156 122.508 52.2649 122.469 50.11C122.405 48.2566 122.393 47.1433 121.19 45.7468C120.955 45.4376 120.66 45.1792 120.324 44.9868C119.988 44.7944 119.616 44.6721 119.232 44.627C118.496 44.627 117.805 45.0324 117.076 45.0582C115.751 45.1161 114.74 43.9513 113.582 43.3013C112.862 42.9167 112.063 42.706 111.248 42.6859C110.433 42.6658 109.624 42.8368 108.886 43.1854C108.145 43.5384 107.482 44.0351 106.933 44.647C106.384 45.2588 105.96 45.9737 105.687 46.7507C105.354 47.6838 105.047 48.8744 104.074 49.0868C102.795 49.3571 101.848 47.4908 100.741 48.2308C99.7555 48.9194 99.8067 51.9312 99.7044 52.9738Z" fill="#18202D"/>
<path d="M78.4044 138.604L93.1205 143.457C93.1205 143.457 88.3218 114.265 87.1253 113.056C85.9288 111.846 71.7694 96.4135 71.7694 96.4135C71.7694 96.4135 79.1786 111.517 75.8323 122.059" fill="url(#paint7_linear)"/>
<path d="M110.287 164.649L113.781 158.175C113.781 158.175 59.971 141.713 59.2544 140.625C58.5378 139.538 60.1502 111.852 60.1502 111.852L52.1011 145.69C52.1011 145.69 69.0374 155.555 110.287 164.649Z" fill="url(#paint8_linear)"/>
<path d="M93.4341 160.704V175.004L78.6349 175.087C78.6349 175.087 80.7079 164.9 80.324 156.649L93.4341 160.704Z" fill="url(#paint9_linear)"/>
<path d="M43.3995 82.9182L24.9213 99.9722L0 83.1498C0.167392 82.1707 0.673253 81.2825 1.42832 80.642C2.18339 80.0014 3.13913 79.6497 4.12689 79.6489H39.3174C40.2657 79.647 41.1864 79.9697 41.9283 80.5638C42.6701 81.1579 43.189 81.9882 43.3995 82.9182Z" fill="white"/>
<path d="M75.858 29.1433C83.6038 29.1433 89.8831 22.8276 89.8831 15.0367C89.8831 7.2459 83.6038 0.930176 75.858 0.930176C68.1122 0.930176 61.833 7.2459 61.833 15.0367C61.833 22.8276 68.1122 29.1433 75.858 29.1433Z" fill="white"/>
<path d="M70.2275 35.9521L66.4077 25.2949H85.4873L82.4609 35.6754L70.2275 35.9521Z" fill="white"/>
<path d="M70.829 37.9664H81.6228V38.8545C81.6228 39.2449 81.5463 39.6316 81.3978 39.9923C81.2492 40.353 81.0315 40.6807 80.757 40.9568C80.4825 41.2329 80.1567 41.4519 79.798 41.6013C79.4394 41.7507 79.055 41.8276 78.6668 41.8276H73.785C73.3968 41.8276 73.0124 41.7507 72.6538 41.6013C72.2951 41.4519 71.9693 41.2329 71.6948 40.9568C71.4203 40.6807 71.2025 40.353 71.054 39.9923C70.9054 39.6316 70.829 39.2449 70.829 38.8545V37.9664Z" fill="white"/>
<g opacity="0.42">
<path opacity="0.42" d="M73.1195 36.1709C72.11 33.9229 71.545 31.4989 71.456 29.034C71.3557 26.506 72.221 24.0353 73.8745 22.1287C74.0886 21.8511 74.3556 21.6193 74.66 21.4469C74.9643 21.2745 75.2998 21.165 75.6468 21.1248C76.0737 21.1389 76.4883 21.2722 76.8442 21.5098C77.2001 21.7473 77.4833 22.0797 77.6623 22.4698C78.0618 22.2183 78.5288 22.0969 78.9995 22.1223C80.2216 22.2123 81.0469 23.3772 81.3285 24.4969C81.5446 25.5561 81.5749 26.6451 81.418 27.7147C81.1061 30.5663 80.4729 33.3731 79.5305 36.0808L78.9291 35.8684C79.8569 33.2006 80.4773 30.4346 80.7782 27.6246C80.9375 26.6183 80.9136 25.5912 80.7078 24.5935C80.4839 23.6989 79.8569 22.7722 78.9547 22.7079C78.595 22.6881 78.2391 22.7901 77.9438 22.9975C77.9822 23.094 78.0142 23.1841 78.0461 23.2806C78.4234 24.4711 78.5198 25.7337 78.3277 26.9682C78.2696 27.5757 78.0079 28.1453 77.5855 28.5835C77.4384 28.715 77.2658 28.8144 77.0786 28.8754C76.8913 28.9363 76.6936 28.9574 76.4978 28.9374C76.345 28.9259 76.1963 28.8828 76.0609 28.8108C75.9255 28.7388 75.8063 28.6395 75.7108 28.5191C75.5369 28.2603 75.4413 27.9563 75.4357 27.6439C75.3084 26.2011 75.6838 24.7587 76.4978 23.5638C76.681 23.2866 76.8958 23.0317 77.1376 22.8044C77.0166 22.5026 76.8152 22.2403 76.5556 22.0461C76.296 21.852 75.9882 21.7336 75.666 21.7039C75.133 21.7863 74.6531 22.075 74.3288 22.5084C72.8052 24.2949 72.0037 26.5915 72.083 28.9439C72.172 31.3267 72.7196 33.6695 73.6953 35.8427L73.1195 36.1709ZM77.4255 23.493C77.2784 23.6432 77.1456 23.807 77.0288 23.9821C76.3026 25.0566 75.9639 26.3489 76.0691 27.6439C76.0723 27.8345 76.1252 28.0209 76.2227 28.1845C76.2623 28.2359 76.3126 28.278 76.3701 28.308C76.4275 28.338 76.4907 28.3552 76.5554 28.3582C76.67 28.3735 76.7866 28.3635 76.897 28.3291C77.0075 28.2947 77.1092 28.2365 77.1952 28.1587C77.5052 27.8186 77.6923 27.3833 77.7262 26.9231C77.9041 25.788 77.8165 24.6268 77.4703 23.5316C77.4703 23.5316 77.4319 23.5123 77.4255 23.4994V23.493Z" fill="#FC7156"/>
</g>
<path d="M187.905 43.4558H142.17C140.194 43.4558 138.593 45.0664 138.593 47.0532V77.1327C138.593 79.1195 140.194 80.7301 142.17 80.7301H187.905C189.88 80.7301 191.481 79.1195 191.481 77.1327V47.0532C191.481 45.0664 189.88 43.4558 187.905 43.4558Z" fill="white"/>
<path opacity="0.42" d="M151.428 53.347H140.871V63.1162H151.428V53.347Z" fill="#FC7156"/>
<path opacity="0.42" d="M164.141 53.347H153.584V63.1162H164.141V53.347Z" fill="#FC7156"/>
<path opacity="0.42" d="M151.428 65.1691H140.871V74.9382H151.428V65.1691Z" fill="#FC7156"/>
<path opacity="0.42" d="M164.141 65.1691H153.584V74.9382H164.141V65.1691Z" fill="#FC7156"/>
<path opacity="0.42" d="M176.375 53.347H165.818V63.1162H176.375V53.347Z" fill="#FC7156"/>
<path opacity="0.42" d="M189.082 53.347H178.525V63.1162H189.082V53.347Z" fill="#FC7156"/>
<path opacity="0.42" d="M176.375 65.1691H165.818V74.9382H176.375V65.1691Z" fill="#FC7156"/>
<path opacity="0.42" d="M189.082 65.1691H178.525V74.9382H189.082V65.1691Z" fill="#FC7156"/>
<defs>
<linearGradient id="paint0_linear" x1="132.937" y1="141.204" x2="154.999" y2="122.147" gradientUnits="userSpaceOnUse">
<stop offset="0.01"/>
<stop offset="0.83" stop-opacity="0.07"/>
<stop offset="1" stop-opacity="0"/>
</linearGradient>
<linearGradient id="paint1_linear" x1="7404" y1="24251" x2="18878.6" y2="25527.5" gradientUnits="userSpaceOnUse">
<stop offset="0.01"/>
<stop offset="0.83" stop-opacity="0.07"/>
<stop offset="1" stop-opacity="0"/>
</linearGradient>
<linearGradient id="paint2_linear" x1="1375.5" y1="2540.76" x2="1735.24" y2="2880.16" gradientUnits="userSpaceOnUse">
<stop offset="0.01"/>
<stop offset="0.83" stop-opacity="0.07"/>
<stop offset="1" stop-opacity="0"/>
</linearGradient>
<linearGradient id="paint3_linear" x1="2730.21" y1="3486.81" x2="3164.39" y2="4174.07" gradientUnits="userSpaceOnUse">
<stop offset="0.01"/>
<stop offset="0.83" stop-opacity="0.07"/>
<stop offset="1" stop-opacity="0"/>
</linearGradient>
<linearGradient id="paint4_linear" x1="148.913" y1="182.295" x2="149.373" y2="161.528" gradientUnits="userSpaceOnUse">
<stop offset="0.01"/>
<stop offset="0.12" stop-opacity="0.75"/>
<stop offset="1" stop-opacity="0"/>
</linearGradient>
<linearGradient id="paint5_linear" x1="27609" y1="13464.5" x2="28904.1" y2="20498.8" gradientUnits="userSpaceOnUse">
<stop offset="0.01"/>
<stop offset="0.12" stop-opacity="0.75"/>
<stop offset="1" stop-opacity="0"/>
</linearGradient>
<linearGradient id="paint6_linear" x1="28558.9" y1="19876.3" x2="28711.5" y2="13377.1" gradientUnits="userSpaceOnUse">
<stop offset="0.01"/>
<stop offset="0.12" stop-opacity="0.75"/>
<stop offset="1" stop-opacity="0"/>
</linearGradient>
<linearGradient id="paint7_linear" x1="2711.19" y1="13457.2" x2="4404.68" y2="12803" gradientUnits="userSpaceOnUse">
<stop offset="0.01"/>
<stop offset="0.83" stop-opacity="0.07"/>
<stop offset="1" stop-opacity="0"/>
</linearGradient>
<linearGradient id="paint8_linear" x1="7931.02" y1="19093.9" x2="9910.77" y2="14280.4" gradientUnits="userSpaceOnUse">
<stop offset="0.01"/>
<stop offset="0.83" stop-opacity="0.07"/>
<stop offset="1" stop-opacity="0"/>
</linearGradient>
<linearGradient id="paint9_linear" x1="2597.61" y1="5286.21" x2="2455.93" y2="7179.88" gradientUnits="userSpaceOnUse">
<stop offset="0.01"/>
<stop offset="0.83" stop-opacity="0.07"/>
<stop offset="1" stop-opacity="0"/>
</linearGradient>
</defs>
</svg>
