<svg width="219" height="170" viewBox="0 0 219 170" fill="none" xmlns="http://www.w3.org/2000/svg">
<path d="M113.834 28.6196C113.216 31.3071 112.615 34.3378 113.297 36.9437C114.11 39.8681 112.567 38.7245 110.731 41.5019C108.97 43.9705 106.327 45.657 103.357 46.2072C100.402 46.731 97.3673 46.5633 94.4877 45.7171C92.1243 45.0881 87.4949 47.3508 86.4959 45.0962C86.0822 43.992 85.873 42.8208 85.8787 41.6408C85.7406 39.1901 87.7304 33.333 88.3152 30.9559C88.5379 30.2369 88.6742 29.4937 88.7213 28.7421C88.7213 27.043 87.4299 25.6542 86.7152 24.1103C86.0391 22.643 85.8567 20.9941 86.1954 19.4132C86.6015 17.567 87.7061 15.9251 88.0228 14.0626C88.1377 13.1498 88.1758 12.2289 88.1365 11.3097C88.0217 9.61864 88.3552 7.92725 89.103 6.40833C94.9263 -3.63124 107.864 2.92021 110.317 5.02779C112.77 7.13536 113.874 10.697 113.882 14.0136C113.89 17.3301 114.906 24.1022 114.15 27.3452C114.037 27.7618 113.972 28.1866 113.834 28.6196Z" fill="#3F3D56"/>
<path d="M122.605 88.9634C122.605 88.9634 123.523 93.0478 122.979 95.3759C122.434 97.7041 120.193 100.351 118.918 100.506C117.643 100.661 116.855 100.032 116.944 99.1499C117.033 98.2677 120.306 95.1717 119.803 94.1833C119.299 93.1948 118.008 96.201 117.561 95.4658C117.115 94.7306 117.301 93.6196 118.438 92.1983C119.576 90.7769 118.438 88.7837 118.438 88.7837C118.438 88.7837 121.801 87.2561 122.605 88.9634Z" fill="#F6C8C9"/>
<path d="M68.8962 51.5823C68.8962 51.5823 66.9876 48.2004 66.1592 47.694C65.3308 47.1875 63.877 45.7906 63.4465 46.1092C62.6831 46.681 65.9886 49.63 63.0404 49.3767C62.5694 49.3767 60.206 49.3767 59.0608 50.455C58.8418 50.6697 58.6697 50.928 58.5555 51.2133C58.4412 51.4986 58.3873 51.8047 58.3973 52.1122C58.4072 52.4196 58.4807 52.7216 58.6132 52.9988C58.7456 53.2761 58.934 53.5226 59.1664 53.7225C59.938 54.2453 62.6019 54.4904 64.0394 54.4495C65.4351 54.3542 66.832 54.6155 68.1003 55.2092" fill="#F6C8C9"/>
<path d="M89.2491 37.1805C88.5559 39.3453 88.0558 41.5678 87.7548 43.8219C87.6167 46.15 86.5365 55.9445 86.1304 56.4183C85.7243 56.8921 68.3114 50.9288 68.3114 50.9288C68.3114 50.9288 67.2556 52.4237 68.1003 55.242C68.1003 55.242 81.095 67.0378 88.908 67.4953C96.7211 67.9527 95.7465 49.2623 95.7465 49.2623" fill="#F6C8C9"/>
<path d="M88.908 37.2542L82.6787 56.0018L83.2147 61.524C83.372 63.1349 84.0535 64.6485 85.1533 65.8302C86.2532 67.0118 87.7101 67.7953 89.2979 68.0591L88.908 37.2542Z" fill="#FC7156"/>
<path d="M88.908 37.2542L82.6787 56.0018L83.2147 61.524C83.372 63.1349 84.0535 64.6485 85.1533 65.8302C86.2532 67.0118 87.7101 67.7953 89.2979 68.0591L88.908 37.2542Z" fill="url(#paint0_linear)"/>
<path d="M112.648 92.7863C112.648 92.7863 114.012 118.829 115.831 139.913C115.831 139.913 90.7923 143.54 80.5671 139.504C80.5671 139.504 82.7681 97.4997 83.2229 91.4711L112.648 92.7863Z" fill="#FC7156"/>
<path d="M112.347 37.8748C112.345 37.2566 112.119 36.6602 111.713 36.1961C111.307 35.732 110.748 35.4316 110.138 35.3507C109.212 35.2281 107.945 35.0321 106.207 34.7135C101.61 33.8966 99.9048 34.2887 96.5831 34.9259C90.5243 36.0859 89.834 36.4616 88.9243 37.254C88.0147 38.0464 83.7671 51.958 85.9112 58.4932C86.3579 59.8655 87.6411 63.1331 87.8766 64.8486C89.2817 75.0107 87.4624 89.6493 87.4624 89.6493C87.4624 89.6493 79.3001 96.3805 98.5485 98.3574C105.679 99.0926 112.55 94.1259 112.55 94.1259L112.347 37.8748Z" fill="#FC7156"/>
<path d="M112.347 37.932C112.343 37.3016 112.114 36.6937 111.701 36.2196C111.288 35.7455 110.718 35.4371 110.098 35.3507C109.18 35.22 107.913 35.0239 106.207 34.7135C101.61 33.8966 99.9048 34.2887 96.5831 34.9259C90.5243 36.0859 89.834 36.4616 88.9243 37.254C86.7315 39.1574 88.7375 86.6351 88.7375 86.6351C88.7375 86.6351 79.3001 96.4378 98.5485 98.382C105.679 99.1172 112.55 94.1506 112.55 94.1506L112.347 37.932Z" fill="url(#paint1_linear)"/>
<path d="M95.2917 35.1874C97.8063 37.6734 100.49 39.9799 103.324 42.0902C103.49 42.1997 103.617 42.3587 103.688 42.5447C103.76 42.7307 103.772 42.9346 103.722 43.1276L103.283 43.6995C103.283 43.6995 97.2084 38.7981 94.0816 35.7755L95.2917 35.1874Z" fill="url(#paint2_linear)"/>
<path d="M112.25 44.933V83.0571L103.015 78.164L108.611 55.3075L112.25 44.933Z" fill="url(#paint3_linear)"/>
<path d="M118.926 72.5193C118.528 72.5193 118.114 72.5193 117.724 72.5193L82.963 72.2906C82.2188 72.3441 81.4725 72.218 80.7864 71.923C80.4531 71.7617 80.1844 71.4908 80.0249 71.1551C79.8654 70.8194 79.8246 70.439 79.9093 70.0768C80.0784 69.7782 80.3123 69.5219 80.5935 69.3267C80.8747 69.1315 81.1961 69.0026 81.5336 68.9495C87.0807 67.3157 93.0014 67.8059 98.7841 67.9529C103.6 68.0754 108.652 67.9039 113.151 65.976C115.22 65.1593 117.427 64.7569 119.649 64.7916C120.932 64.7916 121.638 64.522 122.239 65.5349C122.686 66.2783 122.516 68.2388 122.386 69.0639C122.319 69.6893 122.107 70.2902 121.767 70.8181C121.427 71.3459 120.969 71.786 120.428 72.1027C119.959 72.3378 119.449 72.4793 118.926 72.5193Z" fill="#F6C8C9"/>
<path d="M111.486 36.0616C111.486 36.0616 114.459 38.9942 118.284 51.076C119.697 55.5689 122.394 65.6084 122.394 65.6084C122.394 65.6084 117.115 66.0496 113.135 66.0496C111.348 55.6424 106.686 53.1101 105.89 48.3068C105.095 43.5034 109.099 35.0977 111.486 36.0616Z" fill="#FC7156"/>
<path d="M111.486 36.0615C111.486 36.0615 114.459 38.9942 118.284 51.0759C119.697 55.5688 122.394 65.6083 122.394 65.6083C122.394 65.6083 116.546 66.172 112.567 66.172C110.78 55.7649 106.686 53.1018 105.89 48.3067C105.095 43.5115 109.099 35.0976 111.486 36.0615Z" fill="url(#paint4_linear)"/>
<path d="M104.226 22.5093L104.38 34.8279C103.889 35.5514 103.214 36.1292 102.425 36.5013C101.637 36.8734 100.764 37.0262 99.8967 36.9437C95.3566 36.4372 95.5516 35.0812 95.5516 35.0812C95.5516 35.0812 95.5516 28.2438 95.3729 26.7162" fill="#F6C8C9"/>
<path d="M104.307 26.5203L104.25 22.8035L95.3161 27.4842C95.381 28.0642 95.5029 33.0963 95.5354 34.5503C98.0612 35.31 103.235 30.5966 104.307 26.5203Z" fill="#DCB5B0"/>
<path d="M106.256 10.2723C106.256 10.2723 105.874 22.3949 102.374 26.5447C98.6703 30.9232 95.308 30.2371 93.643 29.8123C89.6471 28.8565 89.0867 17.8938 88.9568 14.8713C88.6238 7.04553 99.3525 0.00394011 106.256 10.2723Z" fill="#F6C8C9"/>
<path d="M104.737 17.6734C104.743 17.4439 104.809 17.22 104.93 17.0252C105.05 16.8303 105.221 16.6716 105.423 16.5656C105.626 16.4597 105.853 16.4103 106.081 16.4226C106.309 16.435 106.529 16.5087 106.719 16.6359C108.506 17.4528 106.833 20.606 106.134 21.4637C105.87 21.7225 105.547 21.9128 105.193 22.0181C104.839 22.1234 104.466 22.1406 104.104 22.0682" fill="#F6C8C9"/>
<path d="M168.704 76.0076H4.28827V168.038H168.704V76.0076Z" fill="#FC7156"/>
<path d="M168.704 76.0076H4.28827V168.038H168.704V76.0076Z" fill="url(#paint5_linear)"/>
<path d="M4.5238 125.617L168.939 105.971V76.0076H4.28827L4.5238 125.617Z" fill="url(#paint6_linear)"/>
<path d="M171.327 70.7384H2.85883C1.27994 70.7384 0 72.0258 0 73.6138C0 75.2019 1.27994 76.4893 2.85883 76.4893H171.327C172.906 76.4893 174.186 75.2019 174.186 73.6138C174.186 72.0258 172.906 70.7384 171.327 70.7384Z" fill="#FC7156"/>
<path d="M171.327 70.7384H2.85883C1.27994 70.7384 0 72.0258 0 73.6138C0 75.2019 1.27994 76.4893 2.85883 76.4893H171.327C172.906 76.4893 174.186 75.2019 174.186 73.6138C174.186 72.0258 172.906 70.7384 171.327 70.7384Z" fill="url(#paint7_linear)"/>
<path d="M92.6115 7.91978C92.9217 9.4726 93.4265 10.9795 94.114 12.4045C94.8108 13.8427 95.9778 14.9963 97.4196 15.672C99.1681 16.2523 101.056 16.2523 102.804 15.672C103.613 15.3653 104.492 15.2973 105.338 15.476C106.11 15.7455 106.816 16.4807 107.596 16.2357C108.376 15.9906 108.53 15.1819 108.595 14.463C108.813 12.8056 108.53 11.1206 107.783 9.62706C107.293 8.7758 106.661 8.01585 105.915 7.38063C102.423 4.2683 96.981 3.20635 92.9201 5.54264C92.4004 5.84489 90.7435 6.82515 90.7435 7.52767C90.7923 8.96538 92.5628 7.71555 92.6115 7.91978Z" fill="#3F3D56"/>
<path d="M204.277 46.4933C206.339 42.4987 210.157 38.7819 214.615 39.1413C215.392 39.1694 216.14 39.4375 216.76 39.9092C217.398 40.5444 217.81 41.3746 217.929 42.27C219.838 50.9372 210.319 58.7385 211.302 67.5935C211.708 71.1715 213.795 74.292 215.403 77.5106C217.011 80.7291 218.14 84.6175 216.597 87.8687C215.541 90.0906 213.43 91.5692 211.619 93.2112C209.807 94.8531 208.102 97.0587 208.37 99.5094C208.484 100.735 209.085 101.887 209.085 103.12C209.085 105.513 206.916 107.335 204.756 108.348C202.595 109.361 200.159 110.031 198.534 111.795C196.764 113.723 196.374 116.541 195.067 118.812C194.866 119.226 194.557 119.576 194.173 119.825C193.718 120.012 193.21 120.024 192.747 119.86C192.283 119.696 191.895 119.367 191.655 118.935C191.202 118.053 190.978 117.069 191.006 116.076L189.82 94.412C189.568 89.9518 189.325 85.4262 189.966 81.0313C190.924 74.4962 193.775 68.4186 196.87 62.635C199.663 57.3661 201.564 51.7541 204.277 46.4933Z" fill="#FC7156"/>
<path d="M215.436 77.486C217.06 80.7045 218.173 84.6011 216.63 87.8441C215.566 90.0661 213.462 91.5446 211.651 93.1866C210.973 93.7915 210.355 94.4619 209.807 95.188C209.162 96.0099 208.702 96.9632 208.459 97.9817C208.345 98.4713 208.312 98.9763 208.362 99.4766C208.475 100.702 209.068 101.862 209.076 103.095C209.076 105.497 206.916 107.311 204.748 108.324C202.831 109.214 200.687 109.851 199.111 111.207C198.911 111.387 198.716 111.575 198.526 111.771C196.756 113.699 196.366 116.509 195.058 118.788C194.854 119.198 194.546 119.547 194.165 119.801C193.71 119.987 193.202 119.999 192.738 119.835C192.275 119.671 191.887 119.342 191.647 118.91C191.346 118.414 191.16 117.855 191.103 117.277C191.051 116.876 191.018 116.472 191.006 116.068L189.812 94.4038C189.56 89.9435 189.316 85.418 189.958 81.0231C190.916 74.488 193.767 68.4103 196.87 62.6268C199.095 58.4688 200.744 54.0739 202.693 49.8098C203.188 48.6988 203.724 47.6042 204.277 46.5422C205.559 43.9163 207.57 41.7203 210.067 40.2195C211.452 39.4424 213.034 39.0903 214.615 39.2065C215.391 39.2427 216.139 39.5131 216.76 39.9826C217.384 40.5984 217.794 41.4007 217.929 42.2699C219.838 50.9452 210.319 58.7384 211.302 67.5935C211.732 71.1878 213.868 74.2674 215.436 77.486Z" fill="url(#paint8_linear)"/>
<path d="M168.2 107.36C163.766 104.386 159.031 100.677 158.348 95.3677C158.225 94.7343 158.234 94.0822 158.373 93.4523C158.513 92.8224 158.781 92.2285 159.161 91.708C159.973 90.7359 161.678 90.45 162.531 91.4139C163.173 92.141 163.676 93.5624 164.553 93.1539C165.154 92.8762 165.073 92.0021 164.87 91.3731C163.359 86.6841 160.46 82.1095 161.199 77.2409C161.426 75.7623 162.612 74.0141 164.009 74.537C164.479 74.7508 164.865 75.1158 165.106 75.5744C166.632 77.9842 166.771 81.5704 169.329 82.8039C169.445 81.523 170.023 80.3291 170.953 79.4465C172.399 81.5867 172.399 84.3478 173 86.8638C174.202 91.8632 177.808 95.8497 181.048 99.8361C184.289 103.823 187.408 108.422 187.31 113.56C186.149 114.507 184.11 112.972 183.014 113.993C182.137 114.81 182.852 116.264 182.722 117.456C182.567 118.845 180.724 119.727 179.473 119.196C178.222 118.665 177.93 116.452 177.248 115.357C175.071 111.918 171.489 109.582 168.2 107.36Z" fill="#FC7156"/>
<path d="M168.2 107.36C163.766 104.386 159.031 100.677 158.348 95.3677C158.225 94.7343 158.234 94.0822 158.373 93.4523C158.513 92.8224 158.781 92.2285 159.161 91.708C159.973 90.7359 161.678 90.45 162.531 91.4139C163.173 92.141 163.676 93.5624 164.553 93.1539C165.154 92.8762 165.073 92.0021 164.87 91.3731C163.359 86.6841 160.46 82.1095 161.199 77.2409C161.426 75.7623 162.612 74.0141 164.009 74.537C164.479 74.7508 164.865 75.1158 165.106 75.5744C166.632 77.9842 166.771 81.5704 169.329 82.8039C169.445 81.523 170.023 80.3291 170.953 79.4465C172.399 81.5867 172.399 84.3478 173 86.8638C174.202 91.8632 177.808 95.8497 181.048 99.8361C184.289 103.823 187.408 108.422 187.31 113.56C186.149 114.507 184.11 112.972 183.014 113.993C182.137 114.81 182.852 116.264 182.722 117.456C182.567 118.845 180.724 119.727 179.473 119.196C178.222 118.665 177.93 116.452 177.248 115.357C175.071 111.918 171.489 109.582 168.2 107.36Z" fill="url(#paint9_linear)"/>
<path d="M169.889 99.6401C166.641 92.6312 171.847 84.9361 176.005 78.401C176.956 77.1354 177.566 75.644 177.775 74.0714C177.734 72.6348 177.391 71.2233 176.768 69.9298C174.178 63.3947 172.163 56.0917 174.169 49.336C175.29 45.562 177.581 42.2617 179.302 38.7164C181.979 33.2172 183.276 27.1422 183.079 21.0226C182.973 17.8775 182.478 14.6917 183.079 11.612C183.68 8.53232 185.816 5.46081 188.902 4.95434C192.305 4.39885 195.4 7.11093 197.121 10.1416C202.173 19.2418 198.608 30.6374 200.305 40.922C201.718 49.4504 206.802 57.7827 204.731 66.164C203.31 72.0047 198.518 76.9061 198.323 82.8857C201.929 82.6243 205.3 85.7693 205.722 89.4208C206.144 93.0723 203.903 96.683 200.687 98.3331C197.958 99.73 194.051 100.555 193.718 103.618C193.548 105.187 194.53 106.641 194.782 108.201C195.676 113.642 188.285 123.232 184.135 117.489C182.047 114.622 181.698 111.526 178.896 108.773C175.818 105.701 171.782 103.757 169.889 99.6401Z" fill="#FC7156"/>
<path d="M200.687 98.2922C197.958 99.6891 194.059 100.514 193.718 103.569C193.548 105.146 194.53 106.6 194.774 108.16C195.456 112.245 191.42 118.78 187.603 119.196C186.921 119.263 186.234 119.134 185.621 118.827C185.007 118.519 184.492 118.044 184.135 117.456C182.047 114.581 181.698 111.477 178.896 108.732C175.818 105.71 171.782 103.757 169.889 99.6401C166.641 92.6312 171.839 84.8952 175.997 78.4009C176.955 77.1384 177.568 75.6459 177.775 74.0714C177.734 72.6348 177.391 71.2233 176.768 69.9298C174.178 63.3947 172.163 56.0917 174.169 49.336C175.298 45.562 177.581 42.2699 179.302 38.7164C181.975 33.216 183.272 27.1419 183.079 21.0226C182.973 17.8776 182.478 14.6999 183.079 11.6202C183.68 8.54054 185.816 5.46086 188.902 4.96256C192.305 4.39891 195.4 7.11098 197.121 10.1416C200.37 15.9661 200.061 22.7299 199.866 29.5428C199.653 33.3385 199.8 37.1461 200.305 40.9139C201.718 49.4422 206.802 57.7663 204.739 66.1639C203.31 72.0047 198.518 76.906 198.323 82.8775C201.929 82.6243 205.308 85.7693 205.73 89.4126C206.153 93.0559 203.911 96.6421 200.687 98.2922Z" fill="url(#paint10_linear)"/>
<path d="M210.083 93.2438C210.078 93.9094 209.985 94.5714 209.807 95.2125C209.53 96.2183 209.073 97.165 208.459 98.0063C207.34 99.5805 205.775 100.779 203.968 101.445C201.093 102.483 198.494 104.452 197.771 107.433C197.592 108.185 198.323 109.696 199.111 111.232C198.911 111.411 198.716 111.599 198.526 111.795C196.756 113.723 196.366 116.533 195.058 118.812C194.854 119.223 194.546 119.572 194.165 119.825C193.71 120.012 193.202 120.024 192.738 119.86C192.275 119.696 191.887 119.367 191.647 118.935C191.346 118.438 191.16 117.88 191.103 117.301C193.491 114.965 195.245 111.019 194.774 108.201C194.522 106.641 193.548 105.187 193.718 103.61C194.059 100.555 197.958 99.7299 200.687 98.333C203.935 96.6992 206.153 93.0396 205.73 89.4208C205.308 85.8019 201.929 82.6651 198.323 82.8856C198.518 76.8815 203.318 72.0292 204.764 66.1966C206.12 60.7316 204.423 55.2911 202.693 49.8016C203.188 48.6906 203.724 47.596 204.277 46.534C205.559 43.9081 207.57 41.7121 210.067 40.2113C208.865 43.2991 208.061 46.3788 208.378 49.4013C210.758 72.4539 204.203 75.9747 203.253 81.9135C206.867 82.0769 210.116 89.576 210.083 93.2438Z" fill="url(#paint11_linear)"/>
<path d="M200.687 98.2922C197.958 99.6891 194.059 100.514 193.718 103.569C193.548 105.146 194.53 106.6 194.774 108.16C195.456 112.245 191.42 118.78 187.603 119.196C187.097 117.237 186.223 115.393 185.028 113.764C182.364 110.374 178.596 107.923 177.231 103.594C174.917 96.2418 181.016 89.2329 185.954 83.3104C187.063 82.174 187.858 80.7662 188.261 79.226C188.401 77.7946 188.237 76.3496 187.781 74.9863C186.027 68.1571 184.939 60.6826 187.781 54.2292C189.357 50.6267 192.045 47.645 194.198 44.3611C197.118 39.887 199.056 34.838 199.883 29.5509C199.669 33.3467 199.816 37.1543 200.321 40.922C201.734 49.4503 206.819 57.7745 204.756 66.1721C203.31 72.0047 198.518 76.906 198.323 82.8775C201.929 82.6242 205.308 85.7693 205.73 89.4126C206.153 93.0559 203.911 96.6421 200.687 98.2922Z" fill="url(#paint12_linear)"/>
<path d="M189.722 169.721H184.143C182.007 169.721 179.952 168.894 178.407 167.411C176.861 165.928 175.943 163.903 175.842 161.757L173.991 122.448C173.959 121.806 174.057 121.164 174.279 120.562C174.502 119.959 174.844 119.409 175.284 118.943C175.725 118.478 176.255 118.108 176.843 117.855C177.43 117.602 178.062 117.472 178.701 117.473H195.879C196.525 117.473 197.164 117.606 197.756 117.864C198.349 118.122 198.882 118.5 199.324 118.974C199.766 119.448 200.106 120.008 200.323 120.62C200.541 121.231 200.632 121.881 200.589 122.529L198.015 161.912C197.875 164.028 196.94 166.012 195.401 167.462C193.861 168.912 191.832 169.72 189.722 169.721Z" fill="#FC7156"/>
<path d="M189.755 169.721H184.11C181.983 169.721 179.937 168.898 178.397 167.421C176.858 165.943 175.943 163.927 175.843 161.789L174.007 122.791C173.975 122.105 174.082 121.419 174.321 120.775C174.56 120.132 174.926 119.544 175.398 119.047C175.869 118.55 176.436 118.154 177.064 117.883C177.692 117.613 178.368 117.473 179.051 117.473H195.529C196.22 117.474 196.904 117.617 197.538 117.894C198.171 118.171 198.742 118.576 199.214 119.083C199.686 119.591 200.049 120.191 200.282 120.845C200.514 121.5 200.61 122.195 200.565 122.889L198.015 161.944C197.877 164.053 196.946 166.03 195.412 167.474C193.879 168.918 191.856 169.722 189.755 169.721Z" fill="url(#paint13_linear)"/>
<path d="M45.8956 62.7491H31.7802C29.8873 62.7491 28.3528 64.2925 28.3528 66.1964V67.4544C28.3528 69.3583 29.8873 70.9017 31.7802 70.9017H45.8956C47.7885 70.9017 49.323 69.3583 49.323 67.4544V66.1964C49.323 64.2925 47.7885 62.7491 45.8956 62.7491Z" fill="#FC7156"/>
<defs>
<linearGradient id="paint0_linear" x1="97.387" y1="51.6151" x2="80.4017" y2="53.7068" gradientUnits="userSpaceOnUse">
<stop offset="0.01"/>
<stop offset="0.83" stop-opacity="0.07"/>
<stop offset="1" stop-opacity="0"/>
</linearGradient>
<linearGradient id="paint1_linear" x1="6330.3" y1="11614.8" x2="5502.29" y2="11664.5" gradientUnits="userSpaceOnUse">
<stop offset="0.01"/>
<stop offset="0.83" stop-opacity="0.07"/>
<stop offset="1" stop-opacity="0"/>
</linearGradient>
<linearGradient id="paint2_linear" x1="2147.54" y1="1204.75" x2="2135.76" y2="1421.4" gradientUnits="userSpaceOnUse">
<stop offset="0.01"/>
<stop offset="0.83" stop-opacity="0.07"/>
<stop offset="1" stop-opacity="0"/>
</linearGradient>
<linearGradient id="paint3_linear" x1="2340.78" y1="6789.48" x2="2083.37" y2="6796.12" gradientUnits="userSpaceOnUse">
<stop offset="0.01"/>
<stop offset="0.83" stop-opacity="0.07"/>
<stop offset="1" stop-opacity="0"/>
</linearGradient>
<linearGradient id="paint4_linear" x1="4116.69" y1="4955.8" x2="3841.08" y2="4993" gradientUnits="userSpaceOnUse">
<stop offset="0.01"/>
<stop offset="0.83" stop-opacity="0.07"/>
<stop offset="1" stop-opacity="0"/>
</linearGradient>
<linearGradient id="paint5_linear" x1="28781.9" y1="8644.99" x2="30620.3" y2="31961.4" gradientUnits="userSpaceOnUse">
<stop offset="0.01"/>
<stop offset="0.83" stop-opacity="0.07"/>
<stop offset="1" stop-opacity="0"/>
</linearGradient>
<linearGradient id="paint6_linear" x1="32524.5" y1="7244.1" x2="32515.7" y2="13415.7" gradientUnits="userSpaceOnUse">
<stop offset="0.01"/>
<stop offset="0.83" stop-opacity="0.07"/>
<stop offset="1" stop-opacity="0"/>
</linearGradient>
<linearGradient id="paint7_linear" x1="34727.4" y1="929.168" x2="34726.9" y2="1276.13" gradientUnits="userSpaceOnUse">
<stop offset="0.01"/>
<stop offset="0.83" stop-opacity="0.07"/>
<stop offset="1" stop-opacity="0"/>
</linearGradient>
<linearGradient id="paint8_linear" x1="8979.29" y1="16775.3" x2="10846.3" y2="16636.2" gradientUnits="userSpaceOnUse">
<stop offset="0.01"/>
<stop offset="0.83" stop-opacity="0.07"/>
<stop offset="1" stop-opacity="0"/>
</linearGradient>
<linearGradient id="paint9_linear" x1="9410.89" y1="9778.21" x2="8385.08" y2="9987.69" gradientUnits="userSpaceOnUse">
<stop offset="0.01"/>
<stop offset="0.83" stop-opacity="0.07"/>
<stop offset="1" stop-opacity="0"/>
</linearGradient>
<linearGradient id="paint10_linear" x1="11917.6" y1="33594.9" x2="13156.8" y2="18255.1" gradientUnits="userSpaceOnUse">
<stop offset="0.01"/>
<stop offset="0.83" stop-opacity="0.07"/>
<stop offset="1" stop-opacity="0"/>
</linearGradient>
<linearGradient id="paint11_linear" x1="5620.88" y1="20808.2" x2="8662.14" y2="19977.7" gradientUnits="userSpaceOnUse">
<stop offset="0.01"/>
<stop offset="0.83" stop-opacity="0.07"/>
<stop offset="1" stop-opacity="0"/>
</linearGradient>
<linearGradient id="paint12_linear" x1="9575.2" y1="25513.1" x2="10336.9" y2="16054.8" gradientUnits="userSpaceOnUse">
<stop offset="0.01"/>
<stop offset="0.83" stop-opacity="0.07"/>
<stop offset="1" stop-opacity="0"/>
</linearGradient>
<linearGradient id="paint13_linear" x1="7992.45" y1="16354.7" x2="9632.9" y2="15214.6" gradientUnits="userSpaceOnUse">
<stop offset="0.01"/>
<stop offset="0.83" stop-opacity="0.07"/>
<stop offset="1" stop-opacity="0"/>
</linearGradient>
</defs>
</svg>
