<svg width="591" height="407" viewBox="0 0 591 407" fill="none" xmlns="http://www.w3.org/2000/svg">
<g clip-path="url(#clip0)">
<path opacity="0.18" d="M526.895 81.8207C532.535 113.948 500.289 145.631 510.252 176.662C515.986 194.586 533.188 205.763 548.017 217.292C571.583 235.575 593.329 262.139 590.075 291.793C586.556 323.777 556.109 346.39 525.848 357.295C412.339 398.162 23.6452 469.953 0.609241 288.738C-3.77719 254.102 16.1123 219.78 38.4314 192.937C56.185 171.593 155.073 75.6619 191.218 57.752C352.226 -22.054 510.309 -12.7477 526.895 81.8207Z" fill="#FDBEB2"/>
<path opacity="0.05" d="M329.692 35.4399C329.692 35.4399 542.562 33.5829 506.855 120.688C479.196 188.083 510.804 193.023 520.688 225.616C530.571 258.21 519.068 295.342 495.258 312.936C471.448 330.531 376.158 327.419 376.158 353.466C376.158 379.514 349.638 370.007 349.638 370.007H182.711L213.2 278.034L329.692 35.4399Z" fill="#000405"/>
<path d="M361.902 359.819H182.711V370.036H361.902V359.819Z" fill="#FDBEB2"/>
<path d="M334.53 278.056H213.201V359.819H334.53V278.056Z" fill="#FDBEB2"/>
<path d="M334.53 278.056H213.201V359.819H334.53V278.056Z" fill="#FDBEB2"/>
<path d="M334.53 278.056H213.201V359.819H334.53V278.056Z" fill="url(#paint0_linear)"/>
<path d="M495.258 46.7321V260.863C495.258 267 494.049 273.077 491.7 278.747C489.351 284.417 485.909 289.569 481.569 293.907C477.229 298.246 472.077 301.686 466.408 304.032C460.738 306.379 454.662 307.584 448.527 307.58H92.9822C80.5959 307.58 68.717 302.658 59.9585 293.897C51.2001 285.136 46.2797 273.253 46.2797 260.863V46.7321C46.2787 40.5961 47.486 34.52 49.8325 28.8507C52.179 23.1814 55.6188 18.03 59.9556 13.6905C64.2923 9.35102 69.441 5.90849 75.1077 3.55947C80.7745 1.21046 86.8482 0.000946163 92.9822 4.69594e-06H448.484C454.621 -0.00753174 460.7 1.19472 466.372 3.53806C472.045 5.8814 477.201 9.31991 481.544 13.6571C485.888 17.9943 489.335 23.1452 491.688 28.8154C494.041 34.4856 495.254 40.5641 495.258 46.7035V46.7321Z" fill="#FDBEB2"/>
<path d="M495.258 46.7321V249.635H46.3298V46.7321C46.3289 40.5961 47.5361 34.52 49.8827 28.8507C52.2292 23.1814 55.669 18.03 60.0057 13.6905C64.3425 9.35102 69.4912 5.90849 75.1579 3.55947C80.8246 1.21046 86.8984 0.000946163 93.0324 4.69594e-06H448.484C454.621 -0.00753174 460.7 1.19472 466.372 3.53806C472.045 5.8814 477.201 9.31991 481.544 13.6571C485.888 17.9943 489.335 23.1452 491.688 28.8154C494.041 34.4856 495.254 40.5641 495.258 46.7035V46.7321Z" fill="url(#paint1_linear)"/>
<path d="M417.714 42.3371H100.529V104.907H417.714V42.3371Z" fill="url(#paint2_linear)"/>
<path d="M244.608 112.894H100.529V238.916H244.608V112.894Z" fill="url(#paint3_linear)"/>
<path d="M415.155 112.894H254.786V154.98H415.155V112.894Z" fill="url(#paint4_linear)"/>
<path d="M415.155 162.967H254.786V205.054H415.155V162.967Z" fill="url(#paint5_linear)"/>
<path d="M415.155 213.041H254.786V238.916H415.155V213.041Z" fill="url(#paint6_linear)"/>
<path d="M346.177 389.58H353.021L331.928 124.136L326.144 125.692L327.455 143.036L306.67 144.348L305.072 124.136L299.288 125.692L319.299 389.58H326.144L323.757 359.467L343.826 358.234L343.525 353.466L323.377 354.707L321.664 333.198L342.263 331.893L341.969 327.139L321.292 328.415L319.586 306.863L339.783 305.58L346.177 389.58ZM307.05 149.08L327.835 147.753L329.47 169.305L308.777 170.639L307.05 149.08ZM309.136 175.364L329.814 174.037L331.448 195.683L310.87 196.973L309.136 175.364ZM311.236 201.698L331.806 200.379L333.555 223.386L313.02 224.634L311.236 201.698ZM313.429 229.373L333.913 228.147L335.433 248.222L315.027 249.506L313.429 229.373ZM315.4 254.266L335.791 252.969L337.425 274.549L317.113 275.833L315.4 254.266ZM319.206 302.138L317.486 280.558L337.791 279.26L339.425 300.855L319.206 302.138Z" fill="#FDBEB2"/>
<path d="M171.881 140.992V124.136H167.659V140.992H147.125V146.212H167.659V379.578H171.881V173.385L196.909 146.212H216.075V140.964L171.881 140.992ZM171.881 166.007V146.212H190.917L171.881 166.007Z" fill="#FDBEB2"/>
<path d="M380.394 140.992V124.136H376.172V140.992H335.612V146.212H353.222L376.158 171.091V379.578H380.394V146.212H404.576V140.964L380.394 140.992ZM376.172 163.842L359.207 146.212H376.158L376.172 163.842Z" fill="#FDBEB2"/>
<g opacity="0.61">
<path opacity="0.61" d="M346.177 389.58H353.021L331.928 124.136L326.144 125.692L327.455 143.036L306.67 144.348L305.072 124.136L299.288 125.692L319.299 389.58H326.144L323.757 359.467L343.826 358.234L343.525 353.466L323.377 354.707L321.664 333.198L342.263 331.893L341.969 327.139L321.292 328.415L319.586 306.863L339.783 305.58L346.177 389.58ZM307.05 149.08L327.835 147.753L329.47 169.305L308.777 170.639L307.05 149.08ZM309.136 175.364L329.814 174.037L331.448 195.683L310.87 196.973L309.136 175.364ZM311.236 201.698L331.806 200.379L333.555 223.386L313.02 224.634L311.236 201.698ZM313.429 229.373L333.913 228.147L335.433 248.222L315.027 249.506L313.429 229.373ZM315.4 254.266L335.791 252.969L337.425 274.549L317.113 275.833L315.4 254.266ZM319.206 302.138L317.486 280.558L337.791 279.26L339.425 300.855L319.206 302.138Z" fill="url(#paint7_linear)"/>
<path opacity="0.61" d="M171.881 140.992V124.136H167.659V140.992H147.125V146.212H167.659V379.578H171.881V173.385L196.909 146.212H216.075V140.964L171.881 140.992ZM171.881 166.007V146.212H190.917L171.881 166.007Z" fill="url(#paint8_linear)"/>
<path opacity="0.61" d="M380.394 140.992V124.136H376.172V140.992H335.612V146.212H353.222L376.158 171.091V379.578H380.394V146.212H404.576V140.964L380.394 140.992ZM376.172 163.842L359.207 146.212H376.158L376.172 163.842Z" fill="url(#paint9_linear)"/>
</g>
<path d="M336.243 194.708L335.755 199.081H325.656C325.656 199.081 324.832 196.557 326.674 195.926C327.685 195.57 328.726 195.308 329.785 195.145L336.243 194.708Z" fill="#FDBEB2"/>
<path d="M322.159 104.126C321.693 108.04 321.936 112.006 322.876 115.834C323.439 116.56 324.185 117.123 325.038 117.464C325.891 117.806 326.819 117.914 327.728 117.777V120.688H332.559L334.623 106.112C334.623 106.112 327.018 96.4038 322.159 104.126Z" fill="url(#paint10_linear)"/>
<path d="M325.563 105.581C326.324 107.104 326.81 108.75 326.997 110.442C326.997 110.442 327.964 108.499 328.43 109.467C328.896 110.435 327.463 112.385 327.463 112.385L328.896 114.808H333.806C333.806 114.808 336.236 104.176 334.874 102.713C333.512 101.251 332.594 101.279 332.594 101.279C332.594 101.279 332.595 99.8453 329.677 99.8453C326.76 99.8453 322.883 99.8453 321.428 102.276C319.973 104.706 319.485 103.71 319.485 103.71C319.485 103.71 320.31 105.509 321.571 105.072C321.872 105 325.076 104.126 325.563 105.581Z" fill="#333333"/>
<path d="M327.742 120.688H335.906C335.906 120.688 339.353 121.405 339.834 129.671C340.127 135.32 340.127 140.979 339.834 146.628V160.178L335.906 158.866L321.335 162.121L319.901 142.254C318.39 142.069 316.936 141.558 315.642 140.756C314.347 139.954 313.242 138.88 312.404 137.608C311.343 136.017 310.676 134.197 310.456 132.297C310.237 130.397 310.472 128.472 311.143 126.681L321.284 132.023L321.822 129.155C322.378 126.047 324.117 123.277 326.674 121.426L327.742 120.688Z" fill="#FDBEB2"/>
<path d="M312.497 123.993L310.075 116.221L319.736 114.758L322.99 125.348L321.284 132.023L315.493 129.004L312.497 123.993Z" fill="#FCFDFF"/>
<path d="M310.555 128.338C310.72 126.712 311.4 125.182 312.497 123.971L312.985 124.452H316.074L316.561 126.352L315.443 127.951C314.77 128.517 313.938 128.859 313.061 128.928C312.184 128.998 311.308 128.791 310.555 128.338Z" fill="url(#paint11_linear)"/>
<path d="M315.493 129.004L317.794 135.113L321.284 132.023L315.493 129.004Z" fill="url(#paint12_linear)"/>
<path opacity="0.61" d="M319.736 141.91C319.736 141.91 327.541 138.992 327.541 134.138L329.491 156.443L321.227 158.4L319.736 141.91Z" fill="url(#paint13_linear)"/>
<path d="M321.191 158.379L319.736 182.569L321.679 195.195H327.506L328.473 174.36L331.871 165.613L329.448 195.195L336.243 195.683L339.59 156.436L335.755 154.98L321.191 158.379Z" fill="#333333"/>
<path d="M327.212 195.195V200.035L316.97 196.378C316.97 196.378 316.97 193.704 318.955 193.704C320.03 193.698 321.103 193.796 322.159 193.998L327.212 195.195Z" fill="#FDBEB2"/>
<path d="M193.512 387.056L194.013 391.416H204.119C204.119 391.416 204.944 388.892 203.095 388.261C202.087 387.903 201.048 387.644 199.991 387.487L193.512 387.056Z" fill="#FDBEB2"/>
<path d="M200.529 295.542C202.285 299.042 203.403 302.827 203.833 306.72C203.252 309.487 199.848 310.118 199.848 310.118L200.772 312.886L195.92 314.585L189.312 301.472C189.312 301.472 193.44 289.764 200.529 295.542Z" fill="url(#paint14_linear)"/>
<path d="M197.762 298.023C197.482 299.629 197.482 301.271 197.762 302.877C197.762 302.877 196.207 301.371 196.063 302.44C195.92 303.508 197.905 304.87 197.905 304.87L197.325 307.638L192.91 309.143C192.91 309.143 187.176 299.823 188.05 298.023C188.925 296.223 189.362 296.03 189.362 296.03C189.362 296.03 188.874 294.668 191.641 293.7C194.408 292.732 198.092 291.549 200.242 293.363C202.392 295.177 202.521 294.08 202.521 294.08C202.521 294.08 202.521 296.023 200.966 296.073C201.116 296.274 197.762 296.467 197.762 298.023Z" fill="#333333"/>
<path d="M202.277 312.936H194.121C194.121 312.936 190.673 313.653 190.186 321.92C189.892 327.566 189.892 333.223 190.186 338.869V352.42L194.121 351.108L208.685 354.363L210.119 334.503C211.625 334.254 213.061 333.683 214.326 332.828C215.592 331.973 216.658 330.854 217.451 329.548C218.508 327.955 219.174 326.133 219.393 324.233C219.613 322.332 219.379 320.407 218.712 318.614L208.563 323.956L208.026 321.088C207.468 317.983 205.729 315.215 203.173 313.366L202.277 312.936Z" fill="#FDBEB2"/>
<path d="M217.286 316.284L219.708 308.563L209.997 307.107L206.793 317.697L208.542 324.056L214.369 321.145L217.286 316.284Z" fill="#FCFDFF"/>
<path d="M219.221 320.708C219.063 319.079 218.381 317.544 217.279 316.334L216.798 316.822H213.738L213.251 318.715L214.369 320.314C215.037 320.873 215.863 321.212 216.732 321.283C217.601 321.353 218.471 321.152 219.221 320.708Z" fill="url(#paint15_linear)"/>
<path opacity="0.61" d="M209.997 334.402C209.997 334.402 202.227 331.491 202.227 326.63L202.858 352.957L208.542 354.219L209.997 334.402Z" fill="url(#paint16_linear)"/>
<path d="M208.542 350.72L209.997 374.911L208.105 387.537H202.277L201.31 366.702L197.905 357.955L200.335 387.537L193.54 388.024L190.143 348.777L194.021 347.322L208.542 350.72Z" fill="#333333"/>
<path d="M202.571 387.537V390.943L213.2 390.455C213.2 390.455 212.72 387.057 210.778 387.057C209.729 387.088 208.69 386.841 207.768 386.34L202.571 387.537Z" fill="#FDBEB2"/>
<path d="M374.309 104.627H349.495C346.109 104.626 342.862 103.279 340.468 100.883C338.075 98.487 336.73 95.2383 336.73 91.8511V86.4093C336.73 83.0226 338.075 79.7747 340.469 77.38C342.863 74.9853 346.11 73.64 349.495 73.64H374.309C375.985 73.6391 377.645 73.9684 379.194 74.6093C380.743 75.2501 382.151 76.1899 383.337 77.375C384.523 78.56 385.464 79.9672 386.106 81.5161C386.749 83.0649 387.08 84.7252 387.081 86.4021V91.8439C387.081 93.5217 386.75 95.1831 386.109 96.7332C385.467 98.2833 384.526 99.6918 383.34 100.878C382.154 102.065 380.746 103.006 379.196 103.648C377.647 104.29 375.986 104.62 374.309 104.62V104.627Z" fill="white"/>
<path d="M339.59 111.36C339.59 111.36 349.739 111.847 352.169 104.563H359.694C359.694 104.563 354.648 113.79 339.59 111.36Z" fill="white"/>
<path opacity="0.15" d="M345.324 78.4294H379.412C379.644 78.4294 379.866 78.5215 380.03 78.6856C380.194 78.8496 380.286 79.0721 380.286 79.3041V80.0211C380.286 80.253 380.194 80.4755 380.03 80.6396C379.866 80.8036 379.644 80.8958 379.412 80.8958H345.324C345.209 80.8958 345.095 80.8731 344.989 80.8292C344.883 80.7852 344.787 80.7208 344.705 80.6396C344.624 80.5583 344.56 80.4619 344.516 80.3558C344.472 80.2497 344.449 80.1359 344.449 80.0211V79.3041C344.449 79.1892 344.472 79.0755 344.516 78.9694C344.56 78.8632 344.624 78.7668 344.705 78.6856C344.787 78.6044 344.883 78.5399 344.989 78.496C345.095 78.452 345.209 78.4294 345.324 78.4294Z" fill="#020202"/>
<path opacity="0.15" d="M345.324 84.2584H379.412C379.644 84.2584 379.866 84.3505 380.03 84.5146C380.194 84.6786 380.286 84.9011 380.286 85.1331V85.85C380.286 86.082 380.194 86.3045 380.03 86.4685C379.866 86.6326 379.644 86.7247 379.412 86.7247H345.324C345.209 86.7247 345.095 86.7021 344.989 86.6582C344.883 86.6142 344.787 86.5498 344.705 86.4685C344.624 86.3873 344.56 86.2909 344.516 86.1848C344.472 86.0786 344.449 85.9649 344.449 85.85V85.1331C344.449 85.0182 344.472 84.9045 344.516 84.7983C344.56 84.6922 344.624 84.5958 344.705 84.5146C344.787 84.4333 344.883 84.3689 344.989 84.3249C345.095 84.281 345.209 84.2584 345.324 84.2584Z" fill="#020202"/>
<path opacity="0.15" d="M345.324 90.0371H379.412C379.644 90.0371 379.866 90.1293 380.03 90.2933C380.194 90.4573 380.286 90.6798 380.286 90.9118V91.6288C380.286 91.7437 380.264 91.8574 380.22 91.9635C380.176 92.0696 380.111 92.1661 380.03 92.2473C379.949 92.3285 379.852 92.393 379.746 92.4369C379.64 92.4809 379.527 92.5035 379.412 92.5035H345.324C345.209 92.5035 345.095 92.4809 344.989 92.4369C344.883 92.393 344.787 92.3285 344.705 92.2473C344.624 92.1661 344.56 92.0696 344.516 91.9635C344.472 91.8574 344.449 91.7437 344.449 91.6288V90.9118C344.449 90.7969 344.472 90.6832 344.516 90.5771C344.56 90.471 344.624 90.3745 344.705 90.2933C344.787 90.2121 344.883 90.1476 344.989 90.1037C345.095 90.0597 345.209 90.0371 345.324 90.0371Z" fill="#020202"/>
<path opacity="0.15" d="M345.324 95.8661H363.909C364.139 95.868 364.36 95.961 364.522 96.1248C364.685 96.2886 364.776 96.51 364.776 96.7408V97.4578C364.776 97.6885 364.685 97.9099 364.522 98.0737C364.36 98.2376 364.139 98.3306 363.909 98.3325H345.324C345.209 98.3325 345.095 98.3098 344.989 98.2659C344.883 98.2219 344.787 98.1575 344.705 98.0763C344.624 97.995 344.56 97.8986 344.516 97.7925C344.472 97.6864 344.449 97.5726 344.449 97.4578V96.7408C344.449 96.6259 344.472 96.5122 344.516 96.406C344.56 96.2999 344.624 96.2035 344.705 96.1223C344.787 96.0411 344.883 95.9766 344.989 95.9327C345.095 95.8887 345.209 95.8661 345.324 95.8661Z" fill="#020202"/>
<path d="M148.092 298.36H172.906C176.244 298.351 179.445 297.034 181.824 294.691C184.202 292.348 185.568 289.166 185.628 285.827V280.149C185.628 276.762 184.283 273.514 181.889 271.12C179.495 268.725 176.248 267.38 172.863 267.38H148.092C144.705 267.38 141.456 268.726 139.061 271.122C136.666 273.518 135.32 276.768 135.32 280.156V285.835C135.386 289.179 136.76 292.365 139.148 294.707C141.537 297.049 144.748 298.361 148.092 298.36Z" fill="white"/>
<path d="M182.711 305.257C182.711 305.257 172.562 305.745 170.132 298.46H162.692C162.692 298.46 167.523 307.58 182.711 305.257Z" fill="white"/>
<path opacity="0.15" d="M176.984 274.6H142.896C142.664 274.6 142.441 274.507 142.277 274.343C142.113 274.179 142.021 273.957 142.021 273.725V273.044C142.021 272.812 142.113 272.589 142.277 272.425C142.441 272.261 142.664 272.169 142.896 272.169H176.984C177.216 272.169 177.438 272.261 177.602 272.425C177.766 272.589 177.858 272.812 177.858 273.044V273.725C177.858 273.957 177.766 274.179 177.602 274.343C177.438 274.507 177.216 274.6 176.984 274.6Z" fill="#020202"/>
<path opacity="0.15" d="M176.984 280.486H142.896C142.664 280.486 142.441 280.394 142.277 280.23C142.113 280.066 142.021 279.843 142.021 279.611V278.901C142.023 278.671 142.116 278.45 142.28 278.288C142.444 278.125 142.665 278.034 142.896 278.034H176.984C177.214 278.034 177.436 278.125 177.6 278.288C177.763 278.45 177.856 278.671 177.858 278.901V279.618C177.858 279.85 177.766 280.073 177.602 280.237C177.438 280.401 177.216 280.493 176.984 280.493V280.486Z" fill="#020202"/>
<path opacity="0.15" d="M176.984 286.265H142.896C142.665 286.265 142.444 286.174 142.28 286.011C142.116 285.849 142.023 285.628 142.021 285.397V284.716C142.021 284.484 142.113 284.262 142.277 284.098C142.441 283.934 142.664 283.841 142.896 283.841H176.984C177.216 283.841 177.438 283.934 177.602 284.098C177.766 284.262 177.858 284.484 177.858 284.716V285.397C177.856 285.628 177.763 285.849 177.6 286.011C177.436 286.174 177.214 286.265 176.984 286.265Z" fill="#020202"/>
<path opacity="0.15" d="M176.984 292.094H158.392C158.16 292.094 157.937 292.002 157.773 291.838C157.609 291.674 157.517 291.451 157.517 291.219V290.545C157.515 290.429 157.537 290.314 157.58 290.206C157.623 290.098 157.687 290 157.768 289.917C157.85 289.835 157.947 289.769 158.054 289.724C158.161 289.679 158.276 289.656 158.392 289.656H176.991C177.223 289.656 177.445 289.748 177.609 289.912C177.773 290.076 177.865 290.299 177.865 290.531V291.205C177.865 291.32 177.843 291.433 177.799 291.539C177.755 291.646 177.69 291.742 177.609 291.823C177.528 291.904 177.432 291.969 177.326 292.013C177.219 292.057 177.106 292.079 176.991 292.079L176.984 292.094Z" fill="#020202"/>
<path d="M214.369 321.145C214.369 321.145 212.742 327.942 210.785 326.974C210.234 326.67 209.752 326.255 209.37 325.755C208.987 325.256 208.713 324.682 208.563 324.071L214.369 321.145Z" fill="url(#paint17_linear)"/>
</g>
<defs>
<linearGradient id="paint0_linear" x1="273.865" y1="294.23" x2="273.865" y2="404.271" gradientUnits="userSpaceOnUse">
<stop stop-opacity="0.4"/>
<stop offset="1" stop-color="white" stop-opacity="0"/>
</linearGradient>
<linearGradient id="paint1_linear" x1="122.282" y1="-28.2558" x2="486.769" y2="382.787" gradientUnits="userSpaceOnUse">
<stop offset="0.02" stop-color="white" stop-opacity="0"/>
<stop offset="1" stop-color="white"/>
</linearGradient>
<linearGradient id="paint2_linear" x1="110915" y1="4489.34" x2="111139" y2="-44774.5" gradientUnits="userSpaceOnUse">
<stop offset="0.02" stop-color="white" stop-opacity="0"/>
<stop offset="1" stop-color="white"/>
</linearGradient>
<linearGradient id="paint3_linear" x1="33232.8" y1="19207.5" x2="35227.1" y2="-79976.4" gradientUnits="userSpaceOnUse">
<stop offset="0.02" stop-color="white" stop-opacity="0"/>
<stop offset="1" stop-color="white"/>
</linearGradient>
<linearGradient id="paint4_linear" x1="73320.9" y1="5858.81" x2="73520.8" y2="-27276.8" gradientUnits="userSpaceOnUse">
<stop offset="0.02" stop-color="white" stop-opacity="0"/>
<stop offset="1" stop-color="white"/>
</linearGradient>
<linearGradient id="paint5_linear" x1="73259.9" y1="9448.77" x2="73459.8" y2="-23686.8" gradientUnits="userSpaceOnUse">
<stop offset="0.02" stop-color="white" stop-opacity="0"/>
<stop offset="1" stop-color="white"/>
</linearGradient>
<linearGradient id="paint6_linear" x1="74201.3" y1="756.591" x2="74276.9" y2="-19616.1" gradientUnits="userSpaceOnUse">
<stop offset="0.02" stop-color="white" stop-opacity="0"/>
<stop offset="1" stop-color="white"/>
</linearGradient>
<linearGradient id="paint7_linear" x1="383.985" y1="413.57" x2="237.715" y2="21.1459" gradientUnits="userSpaceOnUse">
<stop offset="0.58"/>
<stop offset="0.78" stop-opacity="0.16"/>
</linearGradient>
<linearGradient id="paint8_linear" x1="25700" y1="-22492.7" x2="-49954.2" y2="32313.2" gradientUnits="userSpaceOnUse">
<stop offset="0.58"/>
<stop offset="0.78" stop-opacity="0.16"/>
</linearGradient>
<linearGradient id="paint9_linear" x1="42665.3" y1="655.459" x2="-32993.8" y2="55476.3" gradientUnits="userSpaceOnUse">
<stop offset="0.58"/>
<stop offset="0.78" stop-opacity="0.16"/>
</linearGradient>
<linearGradient id="paint10_linear" x1="321.929" y1="110.915" x2="334.623" y2="110.915" gradientUnits="userSpaceOnUse">
<stop stop-color="#ECC4D7"/>
<stop offset="0.42" stop-color="#EFD4D1"/>
<stop offset="1" stop-color="#F2EAC9"/>
</linearGradient>
<linearGradient id="paint11_linear" x1="2914.61" y1="1980.51" x2="2964.71" y2="1980.51" gradientUnits="userSpaceOnUse">
<stop stop-color="#ECC4D7"/>
<stop offset="0.42" stop-color="#EFD4D1"/>
<stop offset="1" stop-color="#F2EAC9"/>
</linearGradient>
<linearGradient id="paint12_linear" x1="313.637" y1="130.912" x2="325.614" y2="135.483" gradientUnits="userSpaceOnUse">
<stop stop-opacity="0"/>
<stop offset="0.91" stop-opacity="0.8"/>
<stop offset="1"/>
</linearGradient>
<linearGradient id="paint13_linear" x1="301.639" y1="147.531" x2="338.594" y2="145.475" gradientUnits="userSpaceOnUse">
<stop offset="0.36" stop-color="#00272E"/>
<stop offset="1" stop-color="#69B9EB" stop-opacity="0"/>
</linearGradient>
<linearGradient id="paint14_linear" x1="4028.68" y1="2886.16" x2="4322.88" y2="2886.16" gradientUnits="userSpaceOnUse">
<stop stop-color="#ECC4D7"/>
<stop offset="0.42" stop-color="#EFD4D1"/>
<stop offset="1" stop-color="#F2EAC9"/>
</linearGradient>
<linearGradient id="paint15_linear" x1="1991.24" y1="838.632" x2="2040.97" y2="838.632" gradientUnits="userSpaceOnUse">
<stop stop-color="#ECC4D7"/>
<stop offset="0.42" stop-color="#EFD4D1"/>
<stop offset="1" stop-color="#F2EAC9"/>
</linearGradient>
<linearGradient id="paint16_linear" x1="2600.65" y1="2323.8" x2="2324.97" y2="2333.5" gradientUnits="userSpaceOnUse">
<stop offset="0.36" stop-color="#00272E"/>
<stop offset="1" stop-color="#69B9EB" stop-opacity="0"/>
</linearGradient>
<linearGradient id="paint17_linear" x1="1925.8" y1="2976.39" x2="1897.84" y2="3049.23" gradientUnits="userSpaceOnUse">
<stop stop-opacity="0"/>
<stop offset="0.91" stop-opacity="0.8"/>
<stop offset="1"/>
</linearGradient>
<clipPath id="clip0">
<rect width="590.405" height="406.3" fill="white"/>
</clipPath>
</defs>
</svg>
